<?xml version="1.0" encoding="utf-8"?>
<!-- Generator: Adobe Illustrator 24.0.3, SVG Export Plug-In . SVG Version: 6.00 Build 0)  -->
<svg version="1.1" id="Layer_1" xmlns="http://www.w3.org/2000/svg" xmlns:xlink="http://www.w3.org/1999/xlink" x="0px" y="0px"
	 viewBox="0 0 288 288" style="enable-background:new 0 0 288 288;" xml:space="preserve">
<style type="text/css">
	.st0{fill:#E178B0;}
	.st1{fill:#FFFFFF;}
</style>
<g id="XMLID_2_">
	<g>
		<rect x="159.6" y="136.98" class="st0" width="7.03" height="7.03"/>
		<rect x="159.6" y="129.96" class="st0" width="7.03" height="7.02"/>
		<rect x="159.6" y="122.93" class="st0" width="7.03" height="7.03"/>
		<rect x="159.6" y="115.9" class="st0" width="7.03" height="7.02"/>
		<rect x="159.6" y="108.89" class="st0" width="7.03" height="7.02"/>
		<rect x="152.58" y="144.01" class="st0" width="7.02" height="7.02"/>
		<rect x="152.58" y="136.98" class="st0" width="7.02" height="7.03"/>
		<rect x="152.58" y="129.96" class="st0" width="7.02" height="7.02"/>
		<rect x="152.58" y="122.93" class="st0" width="7.02" height="7.03"/>
		<rect x="152.58" y="115.9" class="st0" width="7.02" height="7.02"/>
		<rect x="152.58" y="108.89" class="st1" width="7.02" height="7.02"/>
		<rect x="152.58" y="101.86" class="st0" width="7.02" height="7.03"/>
		<rect x="145.55" y="144.01" class="st0" width="7.03" height="7.02"/>
		<rect x="145.55" y="136.98" class="st0" width="7.03" height="7.03"/>
		<rect x="145.55" y="129.96" class="st0" width="7.03" height="7.02"/>
		<rect x="145.55" y="122.93" class="st1" width="7.03" height="7.03"/>
		<rect x="145.55" y="115.9" class="st0" width="7.03" height="7.02"/>
		<rect x="145.55" y="108.89" class="st0" width="7.03" height="7.02"/>
		<rect x="145.55" y="101.86" class="st0" width="7.03" height="7.03"/>
		<rect x="138.53" y="144.01" class="st0" width="7.02" height="7.02"/>
		<rect x="138.53" y="136.98" class="st0" width="7.02" height="7.03"/>
		<rect x="138.53" y="129.96" class="st0" width="7.02" height="7.02"/>
		<rect x="138.53" y="122.93" class="st1" width="7.02" height="7.03"/>
		<rect x="138.53" y="115.9" class="st0" width="7.02" height="7.02"/>
		<rect x="138.53" y="108.89" class="st0" width="7.02" height="7.02"/>
		<rect x="138.53" y="101.86" class="st0" width="7.02" height="7.03"/>
		<rect x="131.5" y="144.01" class="st0" width="7.03" height="7.02"/>
		<rect x="131.5" y="136.98" class="st0" width="7.03" height="7.03"/>
		<rect x="131.5" y="129.96" class="st0" width="7.03" height="7.02"/>
		<rect x="131.5" y="122.93" class="st1" width="7.03" height="7.03"/>
		<rect x="131.5" y="115.9" class="st0" width="7.03" height="7.02"/>
		<rect x="131.5" y="108.89" class="st0" width="7.03" height="7.02"/>
		<rect x="131.5" y="101.86" class="st0" width="7.03" height="7.03"/>
		<rect x="124.48" y="144.01" class="st0" width="7.02" height="7.02"/>
		<rect x="124.48" y="136.98" class="st0" width="7.02" height="7.03"/>
		<rect x="124.48" y="129.96" class="st0" width="7.02" height="7.02"/>
		<rect x="124.48" y="122.93" class="st0" width="7.02" height="7.03"/>
		<rect x="124.48" y="115.9" class="st0" width="7.02" height="7.02"/>
		<rect x="124.48" y="108.89" class="st1" width="7.02" height="7.02"/>
		<rect x="124.48" y="101.86" class="st0" width="7.02" height="7.03"/>
		<rect x="117.46" y="136.98" class="st0" width="7.02" height="7.03"/>
		<rect x="117.46" y="129.96" class="st0" width="7.02" height="7.02"/>
		<rect x="117.46" y="122.93" class="st0" width="7.02" height="7.03"/>
		<rect x="117.46" y="115.9" class="st0" width="7.02" height="7.02"/>
		<rect x="117.46" y="108.89" class="st0" width="7.02" height="7.02"/>
	</g>
</g>
</svg>
