<?xml version="1.0" encoding="utf-8"?>
<!-- Generator: Adobe Illustrator 24.0.3, SVG Export Plug-In . SVG Version: 6.00 Build 0)  -->
<svg version="1.1" id="Layer_1" xmlns="http://www.w3.org/2000/svg" xmlns:xlink="http://www.w3.org/1999/xlink" x="0px" y="0px"
	 viewBox="0 0 288 288" style="enable-background:new 0 0 288 288;" xml:space="preserve">
<style type="text/css">
	.st0{fill:#E178B0;}
</style>
<g id="XMLID_1_">
	<rect x="133.46" y="105.37" class="st0" width="7.03" height="7.02"/>
	<rect x="140.49" y="105.37" class="st0" width="7.02" height="7.02"/>
	<rect x="147.51" y="105.37" class="st0" width="7.03" height="7.02"/>
	<rect x="126.44" y="105.37" class="st0" width="7.02" height="7.02"/>
	<rect x="161.56" y="112.39" class="st0" width="7.03" height="7.02"/>
	<rect x="168.59" y="147.51" class="st0" width="7.02" height="7.03"/>
	<rect x="168.59" y="126.44" class="st0" width="7.02" height="7.02"/>
	<rect x="168.59" y="133.46" class="st0" width="7.02" height="7.03"/>
	<rect x="168.59" y="154.54" class="st0" width="7.02" height="7.02"/>
	<rect x="168.59" y="140.49" class="st0" width="7.02" height="7.02"/>
	<rect x="154.54" y="168.59" class="st0" width="7.02" height="7.02"/>
	<rect x="126.44" y="175.61" class="st0" width="7.02" height="7.02"/>
	<rect x="147.51" y="175.61" class="st0" width="7.03" height="7.02"/>
	<rect x="140.49" y="175.61" class="st0" width="7.02" height="7.02"/>
	<rect x="147.51" y="168.59" class="st0" width="7.03" height="7.02"/>
	<rect x="133.46" y="175.61" class="st0" width="7.03" height="7.02"/>
	<rect x="105.37" y="147.51" class="st0" width="7.02" height="7.03"/>
	<rect x="105.37" y="140.49" class="st0" width="7.02" height="7.02"/>
	<rect x="105.37" y="133.46" class="st0" width="7.02" height="7.03"/>
	<rect x="105.37" y="154.54" class="st0" width="7.02" height="7.02"/>
	<rect x="105.37" y="126.44" class="st0" width="7.02" height="7.02"/>
	<rect x="126.44" y="133.46" class="st0" width="7.02" height="7.03"/>
	<rect x="126.44" y="147.51" class="st0" width="7.02" height="7.03"/>
	<rect x="126.44" y="140.49" class="st0" width="7.02" height="7.02"/>
	<rect x="154.54" y="133.46" class="st0" width="7.02" height="7.03"/>
	<rect x="154.54" y="154.54" class="st0" width="7.02" height="7.02"/>
	<rect x="147.51" y="119.41" class="st0" width="7.03" height="7.03"/>
	<rect x="154.54" y="147.51" class="st0" width="7.02" height="7.03"/>
	<rect x="147.51" y="126.44" class="st0" width="7.03" height="7.02"/>
	<rect x="147.51" y="133.46" class="st0" width="7.03" height="7.03"/>
	<rect x="154.54" y="140.49" class="st0" width="7.02" height="7.02"/>
	<rect x="147.51" y="147.51" class="st0" width="7.03" height="7.03"/>
	<rect x="147.51" y="140.49" class="st0" width="7.03" height="7.02"/>
	<rect x="154.54" y="126.44" class="st0" width="7.02" height="7.02"/>
	<rect x="126.44" y="161.56" class="st0" width="7.02" height="7.03"/>
	<rect x="133.46" y="161.56" class="st0" width="7.03" height="7.03"/>
	<rect x="119.41" y="133.46" class="st0" width="7.03" height="7.03"/>
	<rect x="126.44" y="119.41" class="st0" width="7.02" height="7.03"/>
	<rect x="119.41" y="119.41" class="st0" width="7.03" height="7.03"/>
	<rect x="119.41" y="126.44" class="st0" width="7.03" height="7.02"/>
	<rect x="119.41" y="161.56" class="st0" width="7.03" height="7.03"/>
	<rect x="119.41" y="154.54" class="st0" width="7.03" height="7.02"/>
	<rect x="119.41" y="147.51" class="st0" width="7.03" height="7.03"/>
	<rect x="119.41" y="140.49" class="st0" width="7.03" height="7.02"/>
	<rect x="140.49" y="161.56" class="st0" width="7.02" height="7.03"/>
	<rect x="112.39" y="133.46" class="st0" width="7.02" height="7.03"/>
	<rect x="161.56" y="133.46" class="st0" width="7.03" height="7.03"/>
	<rect x="112.39" y="161.56" class="st0" width="7.02" height="7.03"/>
	<rect x="161.56" y="119.41" class="st0" width="7.03" height="7.03"/>
	<rect x="112.39" y="168.59" class="st0" width="7.02" height="7.02"/>
	<rect x="154.54" y="119.41" class="st0" width="7.02" height="7.03"/>
	<rect x="161.56" y="126.44" class="st0" width="7.03" height="7.02"/>
	<rect x="161.56" y="147.51" class="st0" width="7.03" height="7.03"/>
	<rect x="161.56" y="161.56" class="st0" width="7.03" height="7.03"/>
	<rect x="161.56" y="140.49" class="st0" width="7.03" height="7.02"/>
	<rect x="133.46" y="112.39" class="st0" width="7.03" height="7.02"/>
	<rect x="126.44" y="112.39" class="st0" width="7.02" height="7.02"/>
	<rect x="147.51" y="161.56" class="st0" width="7.03" height="7.03"/>
	<rect x="140.49" y="112.39" class="st0" width="7.02" height="7.02"/>
	<rect x="126.44" y="168.59" class="st0" width="7.02" height="7.02"/>
	<rect x="112.39" y="119.41" class="st0" width="7.02" height="7.03"/>
	<rect x="119.41" y="112.39" class="st0" width="7.03" height="7.02"/>
	<rect x="140.49" y="168.59" class="st0" width="7.02" height="7.02"/>
	<rect x="119.41" y="168.59" class="st0" width="7.03" height="7.02"/>
	<rect x="154.54" y="112.39" class="st0" width="7.02" height="7.02"/>
	<rect x="147.51" y="112.39" class="st0" width="7.03" height="7.02"/>
	<rect x="154.54" y="161.56" class="st0" width="7.02" height="7.03"/>
	<rect x="112.39" y="140.49" class="st0" width="7.02" height="7.02"/>
	<rect x="112.39" y="112.39" class="st0" width="7.02" height="7.02"/>
	<rect x="112.39" y="126.44" class="st0" width="7.02" height="7.02"/>
	<rect x="112.39" y="154.54" class="st0" width="7.02" height="7.02"/>
	<rect x="112.39" y="147.51" class="st0" width="7.02" height="7.03"/>
	<rect x="161.56" y="168.59" class="st0" width="7.03" height="7.02"/>
	<rect x="161.56" y="154.54" class="st0" width="7.03" height="7.02"/>
	<rect x="133.46" y="168.59" class="st0" width="7.03" height="7.02"/>
	<rect x="175.61" y="161.56" width="7.02" height="7.03"/>
	<rect x="175.61" y="154.54" width="7.02" height="7.02"/>
	<rect x="175.61" y="147.51" width="7.02" height="7.03"/>
	<rect x="175.61" y="140.49" width="7.02" height="7.02"/>
	<rect x="175.61" y="133.46" width="7.02" height="7.03"/>
	<rect x="175.61" y="126.44" width="7.02" height="7.02"/>
	<rect x="175.61" y="119.41" width="7.02" height="7.03"/>
	<rect x="168.59" y="168.59" width="7.02" height="7.02"/>
	<rect x="168.59" y="161.56" width="7.02" height="7.03"/>
	<rect x="168.59" y="119.41" width="7.02" height="7.03"/>
	<rect x="168.59" y="112.39" width="7.02" height="7.02"/>
	<rect x="161.56" y="175.61" width="7.03" height="7.02"/>
	<rect x="161.56" y="105.37" width="7.03" height="7.02"/>
	<rect x="154.54" y="175.61" width="7.02" height="7.02"/>
	<rect x="154.54" y="105.37" width="7.02" height="7.02"/>
	<rect x="147.51" y="182.63" width="7.03" height="7.03"/>
	<rect x="147.51" y="154.54" width="7.03" height="7.02"/>
	<rect x="147.51" y="98.34" width="7.03" height="7.03"/>
	<rect x="140.49" y="182.63" width="7.02" height="7.03"/>
	<rect x="140.49" y="154.54" width="7.02" height="7.02"/>
	<rect x="140.49" y="147.51" width="7.02" height="7.03"/>
	<rect x="140.49" y="140.49" width="7.02" height="7.02"/>
	<rect x="140.49" y="133.46" width="7.02" height="7.03"/>
	<rect x="140.49" y="126.44" width="7.02" height="7.02"/>
	<rect x="140.49" y="119.41" width="7.02" height="7.03"/>
	<rect x="140.49" y="98.34" width="7.02" height="7.03"/>
	<rect x="133.46" y="182.63" width="7.03" height="7.03"/>
	<rect x="133.46" y="154.54" width="7.03" height="7.02"/>
	<rect x="133.46" y="147.51" width="7.03" height="7.03"/>
	<rect x="133.46" y="140.49" width="7.03" height="7.02"/>
	<rect x="133.46" y="133.46" width="7.03" height="7.03"/>
	<rect x="133.46" y="126.44" width="7.03" height="7.02"/>
	<rect x="133.46" y="119.41" width="7.03" height="7.03"/>
	<rect x="133.46" y="98.34" width="7.03" height="7.03"/>
	<rect x="126.44" y="182.63" width="7.02" height="7.03"/>
	<rect x="126.44" y="154.54" width="7.02" height="7.02"/>
	<rect x="126.44" y="126.44" width="7.02" height="7.02"/>
	<rect x="126.44" y="98.34" width="7.02" height="7.03"/>
	<rect x="119.41" y="175.61" width="7.03" height="7.02"/>
	<rect x="119.41" y="105.37" width="7.03" height="7.02"/>
	<rect x="112.39" y="175.61" width="7.02" height="7.02"/>
	<rect x="112.39" y="105.37" width="7.02" height="7.02"/>
	<rect x="105.37" y="168.59" width="7.02" height="7.02"/>
	<rect x="105.37" y="161.56" width="7.02" height="7.03"/>
	<rect x="105.37" y="119.41" width="7.02" height="7.03"/>
	<rect x="105.37" y="112.39" width="7.02" height="7.02"/>
	<rect x="98.34" y="161.56" width="7.03" height="7.03"/>
	<rect x="98.34" y="154.54" width="7.03" height="7.02"/>
	<rect x="98.34" y="147.51" width="7.03" height="7.03"/>
	<rect x="98.34" y="140.49" width="7.03" height="7.02"/>
	<rect x="98.34" y="133.46" width="7.03" height="7.03"/>
	<rect x="98.34" y="126.44" width="7.03" height="7.02"/>
	<rect x="98.34" y="119.41" width="7.03" height="7.03"/>
</g>
<rect x="-60.88" y="-92.1" class="st0" width="96" height="55"/>
</svg>
