<?xml version="1.0" encoding="utf-8"?>
<!-- Generator: Adobe Illustrator 24.0.3, SVG Export Plug-In . SVG Version: 6.00 Build 0)  -->
<svg version="1.1" id="Layer_1" xmlns="http://www.w3.org/2000/svg" xmlns:xlink="http://www.w3.org/1999/xlink" x="0px" y="0px"
	 viewBox="0 0 288 288" style="enable-background:new 0 0 288 288;" xml:space="preserve">
<style type="text/css">
	.st0{fill:#A3CF62;}
	.st1{fill:#006838;}
	.st2{fill:#E178B0;}
</style>
<g id="XMLID_1_">
	<g>
		<rect x="88.1" y="167.31" class="st0" width="12.23" height="12.23"/>
		<rect x="112.57" y="191.78" class="st0" width="12.23" height="12.23"/>
		<rect x="100.33" y="155.07" class="st0" width="12.24" height="12.24"/>
		<rect x="100.33" y="191.78" class="st0" width="12.24" height="12.23"/>
		<rect x="112.57" y="216.24" class="st0" width="12.23" height="12.24"/>
		<rect x="112.57" y="204.01" class="st0" width="12.23" height="12.23"/>
		<rect x="112.57" y="155.07" class="st0" width="12.23" height="12.24"/>
		<rect x="112.57" y="130.6" class="st0" width="12.23" height="12.24"/>
		<rect x="100.33" y="167.31" class="st0" width="12.24" height="12.23"/>
		<rect x="100.33" y="142.84" class="st0" width="12.24" height="12.23"/>
		<rect x="100.33" y="204.01" class="st0" width="12.24" height="12.23"/>
		<rect x="112.57" y="179.54" class="st0" width="12.23" height="12.24"/>
		<rect x="88.1" y="191.78" class="st0" width="12.23" height="12.23"/>
		<rect x="88.1" y="179.54" class="st0" width="12.23" height="12.24"/>
		<rect x="112.57" y="167.31" class="st0" width="12.23" height="12.23"/>
		<rect x="100.33" y="179.54" class="st0" width="12.24" height="12.24"/>
		<rect x="88.1" y="204.01" class="st0" width="12.23" height="12.23"/>
		<rect x="112.57" y="142.84" class="st0" width="12.23" height="12.23"/>
		<rect x="124.8" y="130.6" class="st0" width="12.24" height="12.24"/>
		<rect x="124.8" y="179.54" class="st0" width="12.24" height="12.24"/>
		<rect x="137.04" y="179.54" class="st0" width="12.23" height="12.24"/>
		<rect x="137.04" y="216.24" class="st0" width="12.23" height="12.24"/>
		<rect x="124.8" y="204.01" class="st0" width="12.24" height="12.23"/>
		<rect x="149.27" y="216.24" class="st0" width="12.24" height="12.24"/>
		<rect x="124.8" y="118.37" class="st0" width="12.24" height="12.23"/>
		<rect x="124.8" y="216.24" class="st0" width="12.24" height="12.24"/>
		<rect x="149.27" y="204.01" class="st0" width="12.24" height="12.23"/>
		<rect x="137.04" y="93.9" class="st0" width="12.23" height="12.23"/>
		<rect x="173.74" y="179.54" class="st0" width="12.23" height="12.24"/>
		<rect x="173.74" y="204.01" class="st0" width="12.23" height="12.23"/>
		<rect x="185.97" y="179.54" class="st0" width="12.24" height="12.24"/>
		<rect x="149.27" y="130.6" class="st0" width="12.24" height="12.24"/>
		<rect x="173.74" y="191.78" class="st0" width="12.23" height="12.23"/>
		<rect x="185.97" y="204.01" class="st0" width="12.24" height="12.23"/>
		<rect x="173.74" y="142.84" class="st0" width="12.23" height="12.23"/>
		<rect x="161.52" y="130.6" class="st0" width="12.23" height="12.24"/>
		<rect x="173.74" y="167.31" class="st0" width="12.23" height="12.23"/>
		<rect x="185.97" y="191.78" class="st0" width="12.24" height="12.23"/>
		<rect x="185.97" y="167.31" class="st0" width="12.24" height="12.23"/>
		<rect x="173.74" y="155.07" class="st0" width="12.23" height="12.24"/>
		<rect x="149.27" y="118.37" class="st0" width="12.24" height="12.23"/>
		<rect x="137.04" y="118.37" class="st0" width="12.23" height="12.23"/>
		<rect x="137.04" y="106.12" class="st0" width="12.23" height="12.24"/>
		<rect x="161.52" y="142.84" class="st0" width="12.23" height="12.23"/>
		<rect x="137.04" y="155.07" class="st0" width="12.23" height="12.24"/>
		<rect x="149.27" y="155.07" class="st0" width="12.24" height="12.24"/>
		<rect x="161.52" y="204.01" class="st0" width="12.23" height="12.23"/>
		<rect x="161.52" y="216.24" class="st0" width="12.23" height="12.24"/>
		<rect x="161.52" y="179.54" class="st0" width="12.23" height="12.24"/>
		<rect x="161.52" y="191.78" class="st0" width="12.23" height="12.23"/>
		<rect x="161.52" y="155.07" class="st0" width="12.23" height="12.24"/>
		<rect x="161.52" y="167.31" class="st0" width="12.23" height="12.23"/>
		<rect x="198.21" y="204.01" class="st1" width="12.23" height="12.23"/>
		<rect x="198.21" y="191.78" class="st1" width="12.23" height="12.23"/>
		<rect x="198.21" y="179.54" class="st1" width="12.23" height="12.24"/>
		<rect x="198.21" y="167.31" class="st1" width="12.23" height="12.23"/>
		<rect x="185.97" y="216.24" class="st1" width="12.24" height="12.24"/>
		<rect x="185.97" y="155.07" class="st1" width="12.24" height="12.24"/>
		<rect x="185.97" y="142.84" class="st1" width="12.24" height="12.23"/>
		<rect x="173.74" y="228.48" class="st1" width="12.23" height="12.23"/>
		<rect x="173.74" y="216.24" class="st1" width="12.23" height="12.24"/>
		<rect x="173.74" y="130.6" class="st1" width="12.23" height="12.24"/>
		<rect x="173.74" y="69.42" class="st1" width="12.23" height="12.24"/>
		<rect x="161.52" y="228.48" class="st1" width="12.23" height="12.23"/>
		<rect x="161.52" y="118.37" class="st1" width="12.23" height="12.23"/>
		<rect x="161.52" y="81.67" class="st1" width="12.23" height="12.23"/>
		<rect x="161.52" y="69.42" class="st1" width="12.23" height="12.24"/>
		<rect x="149.27" y="228.48" class="st1" width="12.24" height="12.23"/>
		<rect x="149.27" y="191.78" class="st1" width="12.24" height="12.23"/>
		<rect x="149.27" y="179.54" class="st1" width="12.24" height="12.24"/>
		<rect x="149.27" y="167.31" class="st1" width="12.24" height="12.23"/>
		<rect x="149.27" y="142.84" class="st1" width="12.24" height="12.23"/>
		<rect x="149.27" y="106.12" class="st1" width="12.24" height="12.24"/>
		<rect x="149.27" y="93.9" class="st1" width="12.24" height="12.23"/>
		<rect x="149.27" y="81.67" class="st1" width="12.24" height="12.23"/>
		<rect x="149.27" y="69.42" class="st1" width="12.24" height="12.24"/>
		<rect x="149.27" y="57.2" class="st1" width="12.24" height="12.23"/>
		<rect x="137.04" y="228.48" class="st1" width="12.23" height="12.23"/>
		<rect x="137.04" y="204.01" class="st1" width="12.23" height="12.23"/>
		<rect x="137.04" y="191.78" class="st1" width="12.23" height="12.23"/>
		<rect x="137.04" y="167.31" class="st1" width="12.23" height="12.23"/>
		<rect x="137.04" y="142.84" class="st1" width="12.23" height="12.23"/>
		<rect x="137.04" y="130.6" class="st1" width="12.23" height="12.24"/>
		<rect x="137.04" y="81.67" class="st1" width="12.23" height="12.23"/>
		<rect x="137.04" y="69.42" class="st1" width="12.23" height="12.24"/>
		<rect x="137.04" y="57.2" class="st1" width="12.23" height="12.23"/>
		<rect x="124.8" y="228.48" class="st1" width="12.24" height="12.23"/>
		<rect x="124.8" y="191.78" class="st1" width="12.24" height="12.23"/>
		<rect x="124.8" y="167.31" class="st1" width="12.24" height="12.23"/>
		<rect x="124.8" y="155.07" class="st1" width="12.24" height="12.24"/>
		<rect x="124.8" y="142.84" class="st1" width="12.24" height="12.23"/>
		<rect x="124.8" y="106.12" class="st1" width="12.24" height="12.24"/>
		<rect x="124.8" y="93.9" class="st1" width="12.24" height="12.23"/>
		<rect x="124.8" y="81.67" class="st1" width="12.24" height="12.23"/>
		<rect x="124.8" y="69.42" class="st1" width="12.24" height="12.24"/>
		<rect x="124.8" y="57.2" class="st1" width="12.24" height="12.23"/>
		<rect x="112.57" y="228.48" class="st1" width="12.23" height="12.23"/>
		<rect x="112.57" y="118.37" class="st1" width="12.23" height="12.23"/>
		<rect x="112.57" y="81.67" class="st1" width="12.23" height="12.23"/>
		<rect x="112.57" y="69.42" class="st1" width="12.23" height="12.24"/>
		<rect x="100.33" y="228.48" class="st1" width="12.24" height="12.23"/>
		<rect x="100.33" y="216.24" class="st1" width="12.24" height="12.24"/>
		<rect x="100.33" y="130.6" class="st1" width="12.24" height="12.24"/>
		<rect x="100.33" y="69.42" class="st1" width="12.24" height="12.24"/>
		<rect x="88.1" y="216.24" class="st1" width="12.23" height="12.24"/>
		<rect x="88.1" y="155.07" class="st1" width="12.23" height="12.24"/>
		<rect x="88.1" y="142.84" class="st1" width="12.23" height="12.23"/>
		<rect x="75.86" y="204.01" class="st1" width="12.24" height="12.23"/>
		<rect x="75.86" y="191.78" class="st1" width="12.24" height="12.23"/>
		<rect x="75.86" y="179.54" class="st1" width="12.24" height="12.24"/>
		<rect x="75.86" y="167.31" class="st1" width="12.24" height="12.23"/>
	</g>
</g>
<rect x="29.27" y="-89.53" class="st2" width="96" height="55"/>
</svg>
