<?xml version="1.0" encoding="utf-8"?>
<!-- Generator: Adobe Illustrator 24.0.3, SVG Export Plug-In . SVG Version: 6.00 Build 0)  -->
<svg version="1.1" id="Layer_1" xmlns="http://www.w3.org/2000/svg" xmlns:xlink="http://www.w3.org/1999/xlink" x="0px" y="0px"
	 viewBox="0 0 288 288" style="enable-background:new 0 0 288 288;" xml:space="preserve">
<style type="text/css">
	.st0{fill:#E178B0;}
	.st1{fill:#FFFFFF;}
</style>
<g id="XMLID_2_">
	<g>
		<rect x="177.2" y="155.87" class="st0" width="11.76" height="11.76"/>
		<rect x="177.2" y="144.13" class="st0" width="11.76" height="11.74"/>
		<rect x="177.2" y="132.37" class="st0" width="11.76" height="11.76"/>
		<rect x="177.2" y="120.63" class="st0" width="11.76" height="11.74"/>
		<rect x="177.2" y="108.89" class="st0" width="11.76" height="11.74"/>
		<rect x="165.46" y="167.63" class="st0" width="11.74" height="11.74"/>
		<rect x="165.46" y="155.87" class="st0" width="11.74" height="11.76"/>
		<rect x="165.46" y="144.13" class="st0" width="11.74" height="11.74"/>
		<rect x="165.46" y="132.37" class="st0" width="11.74" height="11.76"/>
		<rect x="165.46" y="120.63" class="st0" width="11.74" height="11.74"/>
		<rect x="165.46" y="108.89" class="st1" width="11.74" height="11.74"/>
		<rect x="165.46" y="97.13" class="st0" width="11.74" height="11.76"/>
		<rect x="153.7" y="167.63" class="st0" width="11.76" height="11.74"/>
		<rect x="153.7" y="155.87" class="st0" width="11.76" height="11.76"/>
		<rect x="153.7" y="144.13" class="st0" width="11.76" height="11.74"/>
		<rect x="153.7" y="132.37" class="st1" width="11.76" height="11.76"/>
		<rect x="153.7" y="120.63" class="st0" width="11.76" height="11.74"/>
		<rect x="153.7" y="108.89" class="st0" width="11.76" height="11.74"/>
		<rect x="153.7" y="97.13" class="st0" width="11.76" height="11.76"/>
		<rect x="141.96" y="167.63" class="st0" width="11.74" height="11.74"/>
		<rect x="141.96" y="155.87" class="st0" width="11.74" height="11.76"/>
		<rect x="141.96" y="144.13" class="st0" width="11.74" height="11.74"/>
		<rect x="141.96" y="132.37" class="st1" width="11.74" height="11.76"/>
		<rect x="141.96" y="120.63" class="st0" width="11.74" height="11.74"/>
		<rect x="141.96" y="108.89" class="st0" width="11.74" height="11.74"/>
		<rect x="141.96" y="97.13" class="st0" width="11.74" height="11.76"/>
		<rect x="130.2" y="167.63" class="st0" width="11.76" height="11.74"/>
		<rect x="130.2" y="155.87" class="st0" width="11.76" height="11.76"/>
		<rect x="130.2" y="144.13" class="st0" width="11.76" height="11.74"/>
		<rect x="130.2" y="132.37" class="st1" width="11.76" height="11.76"/>
		<rect x="130.2" y="120.63" class="st0" width="11.76" height="11.74"/>
		<rect x="130.2" y="108.89" class="st0" width="11.76" height="11.74"/>
		<rect x="130.2" y="97.13" class="st0" width="11.76" height="11.76"/>
		<rect x="118.46" y="167.63" class="st0" width="11.74" height="11.74"/>
		<rect x="118.46" y="155.87" class="st0" width="11.74" height="11.76"/>
		<rect x="118.46" y="144.13" class="st0" width="11.74" height="11.74"/>
		<rect x="118.46" y="132.37" class="st0" width="11.74" height="11.76"/>
		<rect x="118.46" y="120.63" class="st0" width="11.74" height="11.74"/>
		<rect x="118.46" y="108.89" class="st1" width="11.74" height="11.74"/>
		<rect x="118.46" y="97.13" class="st0" width="11.74" height="11.76"/>
		<rect x="106.72" y="155.87" class="st0" width="11.74" height="11.76"/>
		<rect x="106.72" y="144.13" class="st0" width="11.74" height="11.74"/>
		<rect x="106.72" y="132.37" class="st0" width="11.74" height="11.76"/>
		<rect x="106.72" y="120.63" class="st0" width="11.74" height="11.74"/>
		<rect x="106.72" y="108.89" class="st0" width="11.74" height="11.74"/>
	</g>
</g>
</svg>
