<?xml version="1.0" encoding="utf-8"?>
<!-- Generator: Adobe Illustrator 24.0.3, SVG Export Plug-In . SVG Version: 6.00 Build 0)  -->
<svg version="1.1" id="Layer_1" xmlns="http://www.w3.org/2000/svg" xmlns:xlink="http://www.w3.org/1999/xlink" x="0px" y="0px"
	 viewBox="0 0 288 288" style="enable-background:new 0 0 288 288;" xml:space="preserve">
<style type="text/css">
	.st0{fill:#E278B0;}
</style>
<g>
	<rect x="165.07" y="119.42" class="st0" width="7.02" height="7.02"/>
	<rect x="165.07" y="112.39" class="st0" width="7.02" height="7.03"/>
	<rect x="165.07" y="105.37" class="st0" width="7.02" height="7.02"/>
	<rect x="165.07" y="98.34" class="st0" width="7.02" height="7.03"/>
	<rect x="165.07" y="91.32" class="st0" width="7.02" height="7.02"/>
	<rect x="165.07" y="84.29" class="st0" width="7.02" height="7.03"/>
	<rect x="158.05" y="126.44" class="st0" width="7.03" height="7.03"/>
	<rect x="158.05" y="77.27" class="st0" width="7.03" height="7.02"/>
	<rect x="151.02" y="133.47" class="st0" width="7.02" height="7.02"/>
	<rect x="151.02" y="70.25" class="st0" width="7.02" height="7.02"/>
	<rect x="144" y="133.47" class="st0" width="7.03" height="7.02"/>
	<rect x="144" y="98.34" class="st0" width="7.03" height="7.03"/>
	<rect x="144" y="84.29" class="st0" width="7.03" height="7.03"/>
	<rect x="144" y="70.25" class="st0" width="7.03" height="7.02"/>
	<rect x="136.98" y="133.47" class="st0" width="7.02" height="7.02"/>
	<rect x="136.98" y="98.34" class="st0" width="7.02" height="7.03"/>
	<rect x="136.98" y="70.25" class="st0" width="7.02" height="7.02"/>
	<rect x="129.94" y="133.47" class="st0" width="7.03" height="7.02"/>
	<rect x="129.94" y="98.34" class="st0" width="7.03" height="7.03"/>
	<rect x="129.94" y="70.25" class="st0" width="7.03" height="7.02"/>
	<rect x="122.93" y="133.47" class="st0" width="7.02" height="7.02"/>
	<rect x="122.93" y="98.34" class="st0" width="7.02" height="7.03"/>
	<rect x="122.93" y="84.29" class="st0" width="7.02" height="7.03"/>
	<rect x="122.93" y="70.25" class="st0" width="7.02" height="7.02"/>
	<rect x="115.9" y="133.47" class="st0" width="7.02" height="7.02"/>
	<rect x="115.9" y="70.25" class="st0" width="7.02" height="7.02"/>
	<rect x="108.88" y="126.44" class="st0" width="7.03" height="7.03"/>
	<rect x="108.88" y="77.27" class="st0" width="7.03" height="7.02"/>
	<rect x="101.86" y="119.42" class="st0" width="7.02" height="7.02"/>
	<rect x="101.86" y="112.39" class="st0" width="7.02" height="7.03"/>
	<rect x="101.86" y="105.37" class="st0" width="7.02" height="7.02"/>
	<rect x="101.86" y="98.34" class="st0" width="7.02" height="7.03"/>
	<rect x="101.86" y="91.32" class="st0" width="7.02" height="7.02"/>
	<rect x="101.86" y="84.29" class="st0" width="7.02" height="7.03"/>
</g>
</svg>
