<?xml version="1.0" encoding="utf-8"?>
<!-- Generator: Adobe Illustrator 24.0.3, SVG Export Plug-In . SVG Version: 6.00 Build 0)  -->
<svg version="1.1" id="Layer_1" xmlns="http://www.w3.org/2000/svg" xmlns:xlink="http://www.w3.org/1999/xlink" x="0px" y="0px"
	 viewBox="0 0 288 288" style="enable-background:new 0 0 288 288;" xml:space="preserve">
<style type="text/css">
	.st0{fill:none;}
	.st1{fill:#E178B0;}
</style>
<g>
	<rect x="112.39" y="147.51" class="st0" width="7.02" height="7.02"/>
	<rect x="133.46" y="112.39" class="st0" width="7.02" height="7.02"/>
	<rect x="161.56" y="126.44" class="st0" width="7.02" height="7.02"/>
	<path class="st0" d="M168.58,161.56v-7.03v-7.02v-7.03h-7.02v-7.02h-7.03v-7.02h7.03v-7.03h7.02v-7.02h-7.02v-7.03v-7.02h-7.03
		v7.02h-7.02v-7.02h-7.03v-7.03h-7.02h-7.03v7.03h-7.02v7.02v7.03h-7.02v7.02v7.03v7.02v7.02h7.02v7.03h7.02v7.02h-7.02v7.03h-7.02
		v7.02v7.03h7.02v7.02h7.02h7.03h7.02v-7.02h7.03v-7.03h7.02v7.03h7.03h7.02v-7.03V161.56z M133.46,126.44v-7.03h-7.03v-7.02h7.03
		v-7.03h7.02v7.03h7.03v7.02h-7.03v7.03H133.46z M161.56,154.53h-7.03v7.03h-7.02v-7.03h-7.03v-7.02h7.03v-7.03h7.02v7.03h7.03
		V154.53z"/>
	<rect x="147.51" y="91.31" class="st0" width="7.02" height="7.03"/>
	<rect x="147.51" y="175.61" class="st0" width="7.02" height="7.02"/>
	<rect x="147.51" y="147.51" class="st0" width="7.02" height="7.02"/>
	<rect x="147.51" y="98.34" class="st1" width="7.02" height="7.02"/>
	<rect x="140.48" y="91.31" class="st1" width="7.03" height="7.03"/>
	<rect x="175.61" y="168.58" class="st0" width="7.02" height="7.03"/>
	<rect x="175.61" y="161.56" class="st1" width="7.02" height="7.02"/>
	<rect x="175.61" y="154.53" class="st1" width="7.02" height="7.03"/>
	<rect x="175.61" y="147.51" class="st1" width="7.02" height="7.02"/>
	<rect x="175.61" y="140.48" class="st1" width="7.02" height="7.03"/>
	<rect x="175.61" y="133.46" class="st1" width="7.02" height="7.02"/>
	<rect x="175.61" y="126.44" class="st1" width="7.02" height="7.02"/>
	<rect x="175.61" y="119.41" class="st1" width="7.02" height="7.03"/>
	<rect x="175.61" y="112.39" class="st1" width="7.02" height="7.02"/>
	<rect x="168.58" y="168.58" class="st1" width="7.03" height="7.03"/>
	<rect x="168.58" y="161.56" class="st1" width="7.03" height="7.02"/>
	<rect x="168.58" y="154.53" class="st0" width="7.03" height="7.03"/>
	<rect x="168.58" y="147.51" class="st0" width="7.03" height="7.02"/>
	<rect x="168.58" y="140.48" class="st0" width="7.03" height="7.03"/>
	<rect x="168.58" y="133.46" class="st0" width="7.03" height="7.02"/>
	<rect x="168.58" y="126.44" class="st1" width="7.03" height="7.02"/>
	<rect x="168.58" y="119.41" class="st0" width="7.03" height="7.03"/>
	<rect x="168.58" y="112.39" class="st0" width="7.03" height="7.02"/>
	<rect x="168.58" y="105.36" class="st1" width="7.03" height="7.03"/>
	<rect x="161.56" y="175.61" class="st1" width="7.02" height="7.02"/>
	<rect x="161.56" y="133.46" class="st1" width="7.02" height="7.02"/>
	<rect x="161.56" y="119.41" class="st1" width="7.02" height="7.03"/>
	<rect x="161.56" y="105.36" class="st1" width="7.02" height="7.03"/>
	<rect x="161.56" y="98.34" class="st1" width="7.02" height="7.02"/>
	<rect x="154.53" y="182.63" class="st1" width="7.03" height="7.03"/>
	<rect x="154.53" y="175.61" class="st1" width="7.03" height="7.02"/>
	<rect x="154.53" y="147.51" class="st1" width="7.03" height="7.02"/>
	<rect x="154.53" y="126.44" class="st1" width="7.03" height="7.02"/>
	<rect x="154.53" y="91.31" class="st1" width="7.03" height="7.03"/>
	<rect x="147.51" y="182.63" class="st1" width="7.02" height="7.03"/>
	<rect x="147.51" y="168.58" class="st1" width="7.02" height="7.03"/>
	<rect x="147.51" y="154.53" class="st1" width="7.02" height="7.03"/>
	<rect x="147.51" y="140.48" class="st1" width="7.02" height="7.03"/>
	<rect x="147.51" y="84.29" class="st1" width="7.02" height="7.02"/>
	<rect x="140.48" y="182.63" class="st1" width="7.03" height="7.03"/>
	<rect x="140.48" y="175.61" class="st1" width="7.03" height="7.02"/>
	<rect x="140.48" y="147.51" class="st1" width="7.03" height="7.02"/>
	<rect x="140.48" y="112.39" class="st1" width="7.03" height="7.02"/>
	<rect x="140.48" y="84.29" class="st1" width="7.03" height="7.02"/>
	<rect x="133.46" y="182.63" class="st1" width="7.02" height="7.03"/>
	<rect x="133.46" y="119.41" class="st1" width="7.02" height="7.03"/>
	<rect x="133.46" y="105.36" class="st1" width="7.02" height="7.03"/>
	<rect x="133.46" y="84.29" class="st1" width="7.02" height="7.02"/>
	<rect x="126.43" y="182.63" class="st1" width="7.03" height="7.03"/>
	<rect x="126.43" y="112.39" class="st1" width="7.03" height="7.02"/>
	<rect x="126.43" y="84.29" class="st1" width="7.03" height="7.02"/>
	<rect x="119.41" y="182.63" class="st1" width="7.02" height="7.03"/>
	<rect x="119.41" y="147.51" class="st1" width="7.02" height="7.02"/>
	<rect x="119.41" y="91.31" class="st1" width="7.02" height="7.03"/>
	<rect x="112.39" y="175.61" class="st1" width="7.02" height="7.02"/>
	<rect x="112.39" y="154.53" class="st1" width="7.02" height="7.03"/>
	<rect x="112.39" y="140.48" class="st1" width="7.02" height="7.03"/>
	<rect x="112.39" y="105.36" class="st1" width="7.02" height="7.03"/>
	<rect x="112.39" y="98.34" class="st1" width="7.02" height="7.02"/>
	<rect x="105.36" y="168.58" class="st1" width="7.03" height="7.03"/>
	<rect x="105.36" y="161.56" class="st1" width="7.03" height="7.02"/>
	<rect x="105.36" y="154.53" class="st0" width="7.03" height="7.03"/>
	<rect x="105.36" y="147.51" class="st1" width="7.03" height="7.02"/>
	<rect x="105.36" y="140.48" class="st0" width="7.03" height="7.03"/>
	<rect x="105.36" y="133.46" class="st0" width="7.03" height="7.02"/>
	<rect x="105.36" y="126.44" class="st0" width="7.03" height="7.02"/>
	<rect x="105.36" y="119.41" class="st0" width="7.03" height="7.03"/>
	<rect x="105.36" y="112.39" class="st0" width="7.03" height="7.02"/>
	<rect x="105.36" y="105.36" class="st1" width="7.03" height="7.03"/>
	<rect x="98.34" y="161.56" class="st1" width="7.02" height="7.02"/>
	<rect x="98.34" y="154.53" class="st1" width="7.02" height="7.03"/>
	<rect x="98.34" y="147.51" class="st1" width="7.02" height="7.02"/>
	<rect x="98.34" y="140.48" class="st1" width="7.02" height="7.03"/>
	<rect x="98.34" y="133.46" class="st1" width="7.02" height="7.02"/>
	<rect x="98.34" y="126.44" class="st1" width="7.02" height="7.02"/>
	<rect x="98.34" y="119.41" class="st1" width="7.02" height="7.03"/>
	<rect x="98.34" y="112.39" class="st1" width="7.02" height="7.02"/>
</g>
<rect x="92.49" y="-76.43" class="st1" width="96" height="55"/>
</svg>
