<?xml version="1.0" encoding="utf-8"?>
<!-- Generator: Adobe Illustrator 24.0.3, SVG Export Plug-In . SVG Version: 6.00 Build 0)  -->
<svg version="1.1" id="Layer_1" xmlns="http://www.w3.org/2000/svg" xmlns:xlink="http://www.w3.org/1999/xlink" x="0px" y="0px"
	 viewBox="0 0 288 288" style="enable-background:new 0 0 288 288;" xml:space="preserve">
<style type="text/css">
	.st0{fill:#E178B0;}
	.st1{fill:none;}
</style>
<g id="XMLID_1_">
	<rect x="195.83" y="175.16" width="13.27" height="13.27"/>
	<rect x="195.83" y="161.91" width="13.27" height="13.25"/>
	<rect x="195.83" y="148.65" width="13.27" height="13.27"/>
	<rect x="195.83" y="135.4" width="13.27" height="13.25"/>
	<rect x="195.83" y="122.15" width="13.27" height="13.25"/>
	<rect x="195.83" y="108.88" width="13.27" height="13.27"/>
	<rect x="182.58" y="188.43" width="13.25" height="13.25"/>
	<rect x="182.58" y="175.16" class="st0" width="13.25" height="13.27"/>
	<rect x="182.58" y="161.91" class="st0" width="13.25" height="13.25"/>
	<rect x="182.58" y="148.65" class="st0" width="13.25" height="13.27"/>
	<rect x="182.58" y="135.4" class="st0" width="13.25" height="13.25"/>
	<rect x="182.58" y="122.15" class="st0" width="13.25" height="13.25"/>
	<rect x="182.58" y="108.88" class="st0" width="13.25" height="13.27"/>
	<rect x="182.58" y="95.64" width="13.25" height="13.25"/>
	<rect x="169.32" y="201.68" width="13.27" height="13.27"/>
	<rect x="169.32" y="188.43" class="st0" width="13.27" height="13.25"/>
	<rect x="169.32" y="175.16" class="st0" width="13.27" height="13.27"/>
	<rect x="169.32" y="161.91" class="st0" width="13.27" height="13.25"/>
	<rect x="169.32" y="148.65" class="st0" width="13.27" height="13.27"/>
	<rect x="169.32" y="135.4" class="st0" width="13.27" height="13.25"/>
	<rect x="169.32" y="122.15" class="st0" width="13.27" height="13.25"/>
	<rect x="169.32" y="108.88" class="st0" width="13.27" height="13.27"/>
	<rect x="169.32" y="95.64" class="st0" width="13.27" height="13.25"/>
	<rect x="169.32" y="82.37" width="13.27" height="13.27"/>
	<rect x="156.07" y="201.68" width="13.25" height="13.27"/>
	<rect x="156.07" y="188.43" class="st0" width="13.25" height="13.25"/>
	<rect x="156.07" y="175.16" class="st0" width="13.25" height="13.27"/>
	<rect x="156.07" y="161.91" class="st0" width="13.25" height="13.25"/>
	<rect x="156.07" y="148.65" class="st0" width="13.25" height="13.27"/>
	<rect x="156.07" y="135.4" class="st0" width="13.25" height="13.25"/>
	<rect x="156.07" y="122.15" class="st0" width="13.25" height="13.25"/>
	<rect x="156.07" y="108.88" width="13.25" height="13.27"/>
	<rect x="156.07" y="95.64" class="st0" width="13.25" height="13.25"/>
	<rect x="156.07" y="82.37" width="13.25" height="13.27"/>
	<rect x="142.8" y="201.68" width="13.27" height="13.27"/>
	<rect x="142.8" y="188.43" class="st0" width="13.27" height="13.25"/>
	<rect x="142.8" y="175.16" class="st0" width="13.27" height="13.27"/>
	<rect x="142.8" y="161.91" class="st0" width="13.27" height="13.25"/>
	<rect x="142.8" y="148.65" class="st0" width="13.27" height="13.27"/>
	<rect x="142.8" y="135.4" width="13.27" height="13.25"/>
	<rect x="142.8" y="122.15" class="st0" width="13.27" height="13.25"/>
	<rect x="142.8" y="108.88" class="st0" width="13.27" height="13.27"/>
	<rect x="142.8" y="95.64" class="st0" width="13.27" height="13.25"/>
	<rect x="142.8" y="82.37" width="13.27" height="13.27"/>
	<rect x="129.55" y="201.68" width="13.25" height="13.27"/>
	<rect x="129.55" y="188.43" class="st0" width="13.25" height="13.25"/>
	<rect x="129.55" y="175.16" class="st0" width="13.25" height="13.27"/>
	<rect x="129.55" y="161.91" class="st0" width="13.25" height="13.25"/>
	<rect x="129.55" y="148.65" class="st0" width="13.25" height="13.27"/>
	<rect x="129.55" y="135.4" width="13.25" height="13.25"/>
	<rect x="129.55" y="122.15" class="st0" width="13.25" height="13.25"/>
	<rect x="129.55" y="108.88" class="st0" width="13.25" height="13.27"/>
	<rect x="129.55" y="95.64" class="st0" width="13.25" height="13.25"/>
	<rect x="129.55" y="82.37" width="13.25" height="13.27"/>
	<rect x="116.29" y="201.68" width="13.27" height="13.27"/>
	<rect x="116.29" y="188.43" class="st0" width="13.27" height="13.25"/>
	<rect x="116.29" y="175.16" class="st0" width="13.27" height="13.27"/>
	<rect x="116.29" y="161.91" class="st0" width="13.27" height="13.25"/>
	<rect x="116.29" y="148.65" class="st0" width="13.27" height="13.27"/>
	<rect x="116.29" y="135.4" width="13.27" height="13.25"/>
	<rect x="116.29" y="122.15" class="st0" width="13.27" height="13.25"/>
	<rect x="116.29" y="108.88" class="st0" width="13.27" height="13.27"/>
	<rect x="116.29" y="95.64" class="st0" width="13.27" height="13.25"/>
	<rect x="116.29" y="82.37" width="13.27" height="13.27"/>
	<rect x="103.04" y="201.68" width="13.25" height="13.27"/>
	<rect x="103.04" y="188.43" class="st0" width="13.25" height="13.25"/>
	<rect x="103.04" y="175.16" class="st0" width="13.25" height="13.27"/>
	<rect x="103.04" y="161.91" class="st0" width="13.25" height="13.25"/>
	<rect x="103.04" y="148.65" class="st0" width="13.25" height="13.27"/>
	<rect x="103.04" y="135.4" class="st0" width="13.25" height="13.25"/>
	<rect x="103.04" y="122.15" class="st0" width="13.25" height="13.25"/>
	<rect x="103.04" y="108.88" width="13.25" height="13.27"/>
	<rect x="103.04" y="95.64" class="st0" width="13.25" height="13.25"/>
	<rect x="103.04" y="82.37" width="13.25" height="13.27"/>
	<rect x="89.79" y="201.68" width="13.25" height="13.27"/>
	<rect x="89.79" y="188.43" class="st0" width="13.25" height="13.25"/>
	<rect x="89.79" y="175.16" class="st0" width="13.25" height="13.27"/>
	<rect x="89.79" y="161.91" class="st0" width="13.25" height="13.25"/>
	<rect x="89.79" y="148.65" class="st0" width="13.25" height="13.27"/>
	<rect x="89.79" y="135.4" class="st0" width="13.25" height="13.25"/>
	<rect x="89.79" y="122.15" class="st0" width="13.25" height="13.25"/>
	<rect x="89.79" y="108.88" class="st0" width="13.25" height="13.27"/>
	<rect x="89.79" y="95.64" class="st0" width="13.25" height="13.25"/>
	<rect x="89.79" y="82.37" width="13.25" height="13.27"/>
	<rect x="76.53" y="188.43" width="13.27" height="13.25"/>
	<rect x="76.53" y="175.16" class="st0" width="13.27" height="13.27"/>
	<rect x="76.53" y="161.91" class="st0" width="13.27" height="13.25"/>
	<rect x="76.53" y="148.65" class="st0" width="13.27" height="13.27"/>
	<rect x="76.53" y="135.4" class="st0" width="13.27" height="13.25"/>
	<rect x="76.53" y="122.15" class="st0" width="13.27" height="13.25"/>
	<rect x="76.53" y="108.88" class="st0" width="13.27" height="13.27"/>
	<rect x="76.53" y="95.64" width="13.27" height="13.25"/>
	<rect x="63.28" y="175.16" width="13.25" height="13.27"/>
	<rect x="63.28" y="161.91" width="13.25" height="13.25"/>
	<rect x="63.28" y="148.65" width="13.25" height="13.27"/>
	<rect x="63.28" y="135.4" width="13.25" height="13.25"/>
	<rect x="63.28" y="122.15" width="13.25" height="13.25"/>
	<rect x="63.28" y="108.88" width="13.25" height="13.27"/>
</g>
<path class="st0" d="M-188.04,188.46h-38.24c-18.73,0-33.92-15.19-33.92-33.92v0c0-18.73,15.19-33.92,33.92-33.92h38.24
	c18.73,0,33.92,15.19,33.92,33.92v0C-154.12,173.27-169.31,188.46-188.04,188.46z"/>
<g id="XMLID_2_">
	<rect x="221.43" y="349.19" width="7.03" height="7.03"/>
	<rect x="221.43" y="342.17" width="7.03" height="7.02"/>
	<rect x="221.43" y="335.14" width="7.03" height="7.03"/>
	<rect x="221.43" y="328.12" width="7.03" height="7.02"/>
	<rect x="221.43" y="321.1" width="7.03" height="7.02"/>
	<rect x="221.43" y="314.07" width="7.03" height="7.03"/>
	<rect x="214.41" y="356.22" width="7.02" height="7.02"/>
	<rect x="214.41" y="349.19" class="st0" width="7.02" height="7.03"/>
	<rect x="214.41" y="342.17" class="st0" width="7.02" height="7.02"/>
	<rect x="214.41" y="335.14" class="st0" width="7.02" height="7.03"/>
	<rect x="214.41" y="328.12" class="st0" width="7.02" height="7.02"/>
	<rect x="214.41" y="321.1" class="st0" width="7.02" height="7.02"/>
	<rect x="214.41" y="314.07" class="st0" width="7.02" height="7.03"/>
	<rect x="214.41" y="307.05" width="7.02" height="7.02"/>
	<rect x="207.38" y="363.24" width="7.03" height="7.03"/>
	<rect x="207.38" y="356.22" class="st0" width="7.03" height="7.02"/>
	<rect x="207.38" y="349.19" class="st0" width="7.03" height="7.03"/>
	<rect x="207.38" y="342.17" class="st0" width="7.03" height="7.02"/>
	<rect x="207.38" y="335.14" class="st0" width="7.03" height="7.03"/>
	<rect x="207.38" y="328.12" class="st0" width="7.03" height="7.02"/>
	<rect x="207.38" y="321.1" class="st0" width="7.03" height="7.02"/>
	<rect x="207.38" y="314.07" class="st0" width="7.03" height="7.03"/>
	<rect x="207.38" y="307.05" class="st0" width="7.03" height="7.02"/>
	<rect x="207.38" y="300.02" width="7.03" height="7.03"/>
	<rect x="200.36" y="363.24" width="7.02" height="7.03"/>
	<rect x="200.36" y="356.22" class="st0" width="7.02" height="7.02"/>
	<rect x="200.36" y="349.19" class="st0" width="7.02" height="7.03"/>
	<rect x="200.36" y="342.17" class="st0" width="7.02" height="7.02"/>
	<rect x="200.36" y="335.14" class="st0" width="7.02" height="7.03"/>
	<rect x="200.36" y="328.12" class="st0" width="7.02" height="7.02"/>
	<rect x="200.36" y="321.1" class="st0" width="7.02" height="7.02"/>
	<rect x="200.36" y="314.07" class="st0" width="7.02" height="7.03"/>
	<rect x="200.36" y="307.05" class="st0" width="7.02" height="7.02"/>
	<rect x="200.36" y="300.02" width="7.02" height="7.03"/>
	<rect x="193.33" y="363.24" width="7.03" height="7.03"/>
	<rect x="193.33" y="356.22" class="st0" width="7.03" height="7.02"/>
	<rect x="193.33" y="349.19" class="st0" width="7.03" height="7.03"/>
	<rect x="193.33" y="342.17" class="st0" width="7.03" height="7.02"/>
	<rect x="193.33" y="335.14" class="st0" width="7.03" height="7.03"/>
	<rect x="193.33" y="328.12" class="st0" width="7.03" height="7.02"/>
	<rect x="193.33" y="321.1" class="st0" width="7.03" height="7.02"/>
	<rect x="193.33" y="314.07" class="st0" width="7.03" height="7.03"/>
	<rect x="193.33" y="307.05" class="st0" width="7.03" height="7.02"/>
	<rect x="193.33" y="300.02" width="7.03" height="7.03"/>
	<rect x="186.31" y="363.24" width="7.02" height="7.03"/>
	<rect x="186.31" y="356.22" class="st0" width="7.02" height="7.02"/>
	<rect x="186.31" y="349.19" class="st0" width="7.02" height="7.03"/>
	<rect x="186.31" y="342.17" class="st0" width="7.02" height="7.02"/>
	<rect x="186.31" y="335.14" class="st0" width="7.02" height="7.03"/>
	<rect x="186.31" y="328.12" class="st0" width="7.02" height="7.02"/>
	<rect x="186.31" y="321.1" class="st0" width="7.02" height="7.02"/>
	<rect x="186.31" y="314.07" class="st0" width="7.02" height="7.03"/>
	<rect x="186.31" y="307.05" class="st0" width="7.02" height="7.02"/>
	<rect x="186.31" y="300.02" width="7.02" height="7.03"/>
	<rect x="179.28" y="363.24" width="7.03" height="7.03"/>
	<rect x="179.28" y="356.22" class="st0" width="7.03" height="7.02"/>
	<rect x="179.28" y="349.19" class="st0" width="7.03" height="7.03"/>
	<rect x="179.28" y="342.17" class="st0" width="7.03" height="7.02"/>
	<rect x="179.28" y="335.14" class="st0" width="7.03" height="7.03"/>
	<rect x="179.28" y="328.12" class="st0" width="7.03" height="7.02"/>
	<rect x="179.28" y="321.1" class="st0" width="7.03" height="7.02"/>
	<rect x="179.28" y="314.07" class="st0" width="7.03" height="7.03"/>
	<rect x="179.28" y="307.05" class="st0" width="7.03" height="7.02"/>
	<rect x="179.28" y="300.02" width="7.03" height="7.03"/>
	<rect x="172.26" y="363.24" width="7.02" height="7.03"/>
	<rect x="172.26" y="356.22" class="st0" width="7.02" height="7.02"/>
	<rect x="172.26" y="349.19" class="st0" width="7.02" height="7.03"/>
	<rect x="172.26" y="342.17" class="st0" width="7.02" height="7.02"/>
	<rect x="172.26" y="335.14" class="st0" width="7.02" height="7.03"/>
	<rect x="172.26" y="328.12" class="st0" width="7.02" height="7.02"/>
	<rect x="172.26" y="321.1" class="st0" width="7.02" height="7.02"/>
	<rect x="172.26" y="314.07" class="st0" width="7.02" height="7.03"/>
	<rect x="172.26" y="307.05" class="st0" width="7.02" height="7.02"/>
	<rect x="172.26" y="300.02" width="7.02" height="7.03"/>
	<rect x="165.24" y="363.24" width="7.02" height="7.03"/>
	<rect x="165.24" y="356.22" class="st0" width="7.02" height="7.02"/>
	<rect x="165.24" y="349.19" class="st0" width="7.02" height="7.03"/>
	<rect x="165.24" y="342.17" class="st0" width="7.02" height="7.02"/>
	<rect x="165.24" y="335.14" class="st0" width="7.02" height="7.03"/>
	<rect x="165.24" y="328.12" class="st0" width="7.02" height="7.02"/>
	<rect x="165.24" y="321.1" class="st0" width="7.02" height="7.02"/>
	<rect x="165.24" y="314.07" class="st0" width="7.02" height="7.03"/>
	<rect x="165.24" y="307.05" class="st0" width="7.02" height="7.02"/>
	<rect x="165.24" y="300.02" width="7.02" height="7.03"/>
	<rect x="158.21" y="356.22" width="7.03" height="7.02"/>
	<rect x="158.21" y="349.19" class="st0" width="7.03" height="7.03"/>
	<rect x="158.21" y="342.17" class="st0" width="7.03" height="7.02"/>
	<rect x="158.21" y="335.14" class="st0" width="7.03" height="7.03"/>
	<rect x="158.21" y="328.12" class="st0" width="7.03" height="7.02"/>
	<rect x="158.21" y="321.1" class="st0" width="7.03" height="7.02"/>
	<rect x="158.21" y="314.07" class="st0" width="7.03" height="7.03"/>
	<rect x="158.21" y="307.05" width="7.03" height="7.02"/>
	<rect x="151.19" y="349.19" width="7.02" height="7.03"/>
	<rect x="151.19" y="342.17" width="7.02" height="7.02"/>
	<rect x="151.19" y="335.14" width="7.02" height="7.03"/>
	<rect x="151.19" y="328.12" width="7.02" height="7.02"/>
	<rect x="151.19" y="321.1" width="7.02" height="7.02"/>
	<rect x="151.19" y="314.07" width="7.02" height="7.03"/>
</g>
<g id="XMLID_3_">
	<rect x="272.18" y="433.63" width="12.32" height="5.27"/>
	<rect x="272.18" y="428.36" width="12.32" height="5.26"/>
	<rect x="272.18" y="423.09" width="12.32" height="5.27"/>
	<rect x="272.18" y="417.83" width="12.32" height="5.26"/>
	<rect x="272.18" y="412.56" width="12.32" height="5.26"/>
	<rect x="272.18" y="407.29" width="12.32" height="5.27"/>
	<rect x="259.88" y="438.9" width="12.3" height="5.26"/>
	<rect x="259.88" y="433.63" class="st0" width="12.3" height="5.27"/>
	<rect x="259.88" y="428.36" class="st0" width="12.3" height="5.26"/>
	<rect x="259.88" y="423.09" class="st0" width="12.3" height="5.27"/>
	<rect x="259.88" y="417.83" class="st0" width="12.3" height="5.26"/>
	<rect x="259.88" y="412.56" class="st0" width="12.3" height="5.26"/>
	<rect x="259.88" y="407.29" class="st0" width="12.3" height="5.27"/>
	<rect x="259.88" y="402.03" width="12.3" height="5.26"/>
	<rect x="247.56" y="444.17" width="12.32" height="5.27"/>
	<rect x="247.56" y="438.9" class="st0" width="12.32" height="5.26"/>
	<rect x="247.56" y="433.63" class="st0" width="12.32" height="5.27"/>
	<rect x="247.56" y="428.36" class="st0" width="12.32" height="5.26"/>
	<rect x="247.56" y="423.09" class="st0" width="12.32" height="5.27"/>
	<rect x="247.56" y="417.83" class="st0" width="12.32" height="5.26"/>
	<rect x="247.56" y="412.56" class="st0" width="12.32" height="5.26"/>
	<rect x="247.56" y="407.29" class="st0" width="12.32" height="5.27"/>
	<rect x="247.56" y="402.03" class="st0" width="12.32" height="5.26"/>
	<rect x="247.56" y="396.75" width="12.32" height="5.27"/>
	<rect x="235.26" y="444.17" width="12.3" height="5.27"/>
	<rect x="235.26" y="438.9" class="st0" width="12.3" height="5.26"/>
	<rect x="235.26" y="433.63" class="st0" width="12.3" height="5.27"/>
	<rect x="235.26" y="428.36" class="st0" width="12.3" height="5.26"/>
	<rect x="235.26" y="423.09" class="st0" width="12.3" height="5.27"/>
	<rect x="235.26" y="417.83" class="st0" width="12.3" height="5.26"/>
	<rect x="235.26" y="412.56" class="st0" width="12.3" height="5.26"/>
	<rect x="235.26" y="407.29" class="st0" width="12.3" height="5.27"/>
	<rect x="235.26" y="402.03" class="st0" width="12.3" height="5.26"/>
	<rect x="235.26" y="396.75" width="12.3" height="5.27"/>
	<rect x="222.94" y="444.17" width="12.32" height="5.27"/>
	<rect x="222.94" y="438.9" class="st0" width="12.32" height="5.26"/>
	<rect x="222.94" y="433.63" class="st0" width="12.32" height="5.27"/>
	<rect x="222.94" y="428.36" class="st0" width="12.32" height="5.26"/>
	<rect x="222.94" y="423.09" class="st0" width="12.32" height="5.27"/>
	<rect x="222.94" y="417.83" class="st0" width="12.32" height="5.26"/>
	<rect x="222.94" y="412.56" class="st0" width="12.32" height="5.26"/>
	<rect x="222.94" y="407.29" class="st0" width="12.32" height="5.27"/>
	<rect x="222.94" y="402.03" class="st0" width="12.32" height="5.26"/>
	<rect x="222.94" y="396.75" width="12.32" height="5.27"/>
	<rect x="210.64" y="444.17" width="12.3" height="5.27"/>
	<rect x="210.64" y="438.9" class="st0" width="12.3" height="5.26"/>
	<rect x="210.64" y="433.63" class="st0" width="12.3" height="5.27"/>
	<rect x="210.64" y="428.36" class="st0" width="12.3" height="5.26"/>
	<rect x="210.64" y="423.09" class="st0" width="12.3" height="5.27"/>
	<rect x="210.64" y="417.83" class="st0" width="12.3" height="5.26"/>
	<rect x="210.64" y="412.56" class="st0" width="12.3" height="5.26"/>
	<rect x="210.64" y="407.29" class="st0" width="12.3" height="5.27"/>
	<rect x="210.64" y="402.03" class="st0" width="12.3" height="5.26"/>
	<rect x="210.64" y="396.75" width="12.3" height="5.27"/>
	<rect x="198.32" y="444.17" width="12.32" height="5.27"/>
	<rect x="198.32" y="438.9" class="st0" width="12.32" height="5.26"/>
	<rect x="198.32" y="433.63" class="st0" width="12.32" height="5.27"/>
	<rect x="198.32" y="428.36" class="st0" width="12.32" height="5.26"/>
	<rect x="198.32" y="423.09" class="st0" width="12.32" height="5.27"/>
	<rect x="198.32" y="417.83" class="st0" width="12.32" height="5.26"/>
	<rect x="198.32" y="412.56" class="st0" width="12.32" height="5.26"/>
	<rect x="198.32" y="407.29" class="st0" width="12.32" height="5.27"/>
	<rect x="198.32" y="402.03" class="st0" width="12.32" height="5.26"/>
	<rect x="198.32" y="396.75" width="12.32" height="5.27"/>
	<rect x="186.02" y="444.17" width="12.3" height="5.27"/>
	<rect x="186.02" y="438.9" class="st0" width="12.3" height="5.26"/>
	<rect x="186.02" y="433.63" class="st0" width="12.3" height="5.27"/>
	<rect x="186.02" y="428.36" class="st0" width="12.3" height="5.26"/>
	<rect x="186.02" y="423.09" class="st0" width="12.3" height="5.27"/>
	<rect x="186.02" y="417.83" class="st0" width="12.3" height="5.26"/>
	<rect x="186.02" y="412.56" class="st0" width="12.3" height="5.26"/>
	<rect x="186.02" y="407.29" class="st0" width="12.3" height="5.27"/>
	<rect x="186.02" y="402.03" class="st0" width="12.3" height="5.26"/>
	<rect x="186.02" y="396.75" width="12.3" height="5.27"/>
	<rect x="173.72" y="444.17" width="12.3" height="5.27"/>
	<rect x="173.72" y="438.9" class="st0" width="12.3" height="5.26"/>
	<rect x="173.72" y="433.63" class="st0" width="12.3" height="5.27"/>
	<rect x="173.72" y="428.36" class="st0" width="12.3" height="5.26"/>
	<rect x="173.72" y="423.09" class="st0" width="12.3" height="5.27"/>
	<rect x="173.72" y="417.83" class="st0" width="12.3" height="5.26"/>
	<rect x="173.72" y="412.56" class="st0" width="12.3" height="5.26"/>
	<rect x="173.72" y="407.29" class="st0" width="12.3" height="5.27"/>
	<rect x="173.72" y="402.03" class="st0" width="12.3" height="5.26"/>
	<rect x="173.72" y="396.75" width="12.3" height="5.27"/>
	<rect x="161.4" y="438.9" width="12.32" height="5.26"/>
	<rect x="161.4" y="433.63" class="st0" width="12.32" height="5.27"/>
	<rect x="161.4" y="428.36" class="st0" width="12.32" height="5.26"/>
	<rect x="161.4" y="423.09" class="st0" width="12.32" height="5.27"/>
	<rect x="161.4" y="417.83" class="st0" width="12.32" height="5.26"/>
	<rect x="161.4" y="412.56" class="st0" width="12.32" height="5.26"/>
	<rect x="161.4" y="407.29" class="st0" width="12.32" height="5.27"/>
	<rect x="161.4" y="402.03" width="12.32" height="5.26"/>
	<rect x="149.1" y="433.63" width="12.3" height="5.27"/>
	<rect x="149.1" y="428.36" width="12.3" height="5.26"/>
	<rect x="149.1" y="423.09" width="12.3" height="5.27"/>
	<rect x="149.1" y="417.83" width="12.3" height="5.26"/>
	<rect x="149.1" y="412.56" width="12.3" height="5.26"/>
	<rect x="149.1" y="407.29" width="12.3" height="5.27"/>
</g>
<g>
	<rect x="154.7" y="100.29" class="st1" width="1.44" height="0.6"/>
	<line class="st1" x1="154.7" y1="100.87" x2="156.14" y2="100.87"/>
	<line class="st1" x1="154.7" y1="100.85" x2="156.14" y2="100.85"/>
	<line class="st1" x1="154.7" y1="100.84" x2="156.14" y2="100.84"/>
	<line class="st1" x1="154.7" y1="100.82" x2="156.14" y2="100.82"/>
	<line class="st1" x1="154.7" y1="100.81" x2="156.14" y2="100.81"/>
	<line class="st1" x1="154.7" y1="100.79" x2="156.14" y2="100.79"/>
	<line class="st1" x1="154.7" y1="100.78" x2="156.14" y2="100.78"/>
	<line class="st1" x1="154.7" y1="100.76" x2="156.14" y2="100.76"/>
	<line class="st1" x1="154.7" y1="100.75" x2="156.14" y2="100.75"/>
	<line class="st1" x1="154.7" y1="100.74" x2="156.14" y2="100.74"/>
	<line class="st1" x1="154.7" y1="100.72" x2="156.14" y2="100.72"/>
	<line class="st1" x1="154.7" y1="100.71" x2="156.14" y2="100.71"/>
	<line class="st1" x1="154.7" y1="100.69" x2="156.14" y2="100.69"/>
	<line class="st1" x1="154.7" y1="100.68" x2="156.14" y2="100.68"/>
	<line class="st1" x1="154.7" y1="100.66" x2="156.14" y2="100.66"/>
	<line class="st1" x1="154.7" y1="100.65" x2="156.14" y2="100.65"/>
	<line class="st1" x1="154.7" y1="100.63" x2="156.14" y2="100.63"/>
	<line class="st1" x1="154.7" y1="100.62" x2="156.14" y2="100.62"/>
	<line class="st1" x1="154.7" y1="100.6" x2="156.14" y2="100.6"/>
	<line class="st1" x1="154.7" y1="100.59" x2="156.14" y2="100.59"/>
	<line class="st1" x1="154.7" y1="100.58" x2="156.14" y2="100.58"/>
	<line class="st1" x1="154.7" y1="100.56" x2="156.14" y2="100.56"/>
	<line class="st1" x1="154.7" y1="100.55" x2="156.14" y2="100.55"/>
	<line class="st1" x1="154.7" y1="100.53" x2="156.14" y2="100.53"/>
	<line class="st1" x1="154.7" y1="100.52" x2="156.14" y2="100.52"/>
	<line class="st1" x1="154.7" y1="100.5" x2="156.14" y2="100.5"/>
	<line class="st1" x1="154.7" y1="100.49" x2="156.14" y2="100.49"/>
	<line class="st1" x1="154.7" y1="100.47" x2="156.14" y2="100.47"/>
	<line class="st1" x1="154.7" y1="100.46" x2="156.14" y2="100.46"/>
	<line class="st1" x1="154.7" y1="100.44" x2="156.14" y2="100.44"/>
	<line class="st1" x1="154.7" y1="100.43" x2="156.14" y2="100.43"/>
	<line class="st1" x1="154.7" y1="100.42" x2="156.14" y2="100.42"/>
	<line class="st1" x1="154.7" y1="100.4" x2="156.14" y2="100.4"/>
	<line class="st1" x1="154.7" y1="100.39" x2="156.14" y2="100.39"/>
	<line class="st1" x1="154.7" y1="100.37" x2="156.14" y2="100.37"/>
	<line class="st1" x1="154.7" y1="100.36" x2="156.14" y2="100.36"/>
	<line class="st1" x1="154.7" y1="100.34" x2="156.14" y2="100.34"/>
	<line class="st1" x1="154.7" y1="100.33" x2="156.14" y2="100.33"/>
	<line class="st1" x1="154.7" y1="100.31" x2="156.14" y2="100.31"/>
	<line class="st1" x1="154.7" y1="100.3" x2="156.14" y2="100.3"/>
	<line class="st1" x1="156.1" y1="100.29" x2="156.1" y2="100.88"/>
	<line class="st1" x1="156.07" y1="100.29" x2="156.07" y2="100.88"/>
	<line class="st1" x1="156.03" y1="100.29" x2="156.03" y2="100.88"/>
	<line class="st1" x1="156" y1="100.29" x2="156" y2="100.88"/>
	<line class="st1" x1="155.96" y1="100.29" x2="155.96" y2="100.88"/>
	<line class="st1" x1="155.93" y1="100.29" x2="155.93" y2="100.88"/>
	<line class="st1" x1="155.89" y1="100.29" x2="155.89" y2="100.88"/>
	<line class="st1" x1="155.86" y1="100.29" x2="155.86" y2="100.88"/>
	<line class="st1" x1="155.82" y1="100.29" x2="155.82" y2="100.88"/>
	<line class="st1" x1="155.79" y1="100.29" x2="155.79" y2="100.88"/>
	<line class="st1" x1="155.75" y1="100.29" x2="155.75" y2="100.88"/>
	<line class="st1" x1="155.72" y1="100.29" x2="155.72" y2="100.88"/>
	<line class="st1" x1="155.68" y1="100.29" x2="155.68" y2="100.88"/>
	<line class="st1" x1="155.65" y1="100.29" x2="155.65" y2="100.88"/>
	<line class="st1" x1="155.61" y1="100.29" x2="155.61" y2="100.88"/>
	<line class="st1" x1="155.58" y1="100.29" x2="155.58" y2="100.88"/>
	<line class="st1" x1="155.54" y1="100.29" x2="155.54" y2="100.88"/>
	<line class="st1" x1="155.51" y1="100.29" x2="155.51" y2="100.88"/>
	<line class="st1" x1="155.47" y1="100.29" x2="155.47" y2="100.88"/>
	<line class="st1" x1="155.44" y1="100.29" x2="155.44" y2="100.88"/>
	<line class="st1" x1="155.4" y1="100.29" x2="155.4" y2="100.88"/>
	<line class="st1" x1="155.37" y1="100.29" x2="155.37" y2="100.88"/>
	<line class="st1" x1="155.33" y1="100.29" x2="155.33" y2="100.88"/>
	<line class="st1" x1="155.3" y1="100.29" x2="155.3" y2="100.88"/>
	<line class="st1" x1="155.26" y1="100.29" x2="155.26" y2="100.88"/>
	<line class="st1" x1="155.23" y1="100.29" x2="155.23" y2="100.88"/>
	<line class="st1" x1="155.19" y1="100.29" x2="155.19" y2="100.88"/>
	<line class="st1" x1="155.15" y1="100.29" x2="155.15" y2="100.88"/>
	<line class="st1" x1="155.12" y1="100.29" x2="155.12" y2="100.88"/>
	<line class="st1" x1="155.08" y1="100.29" x2="155.08" y2="100.88"/>
	<line class="st1" x1="155.05" y1="100.29" x2="155.05" y2="100.88"/>
	<line class="st1" x1="155.01" y1="100.29" x2="155.01" y2="100.88"/>
	<line class="st1" x1="154.98" y1="100.29" x2="154.98" y2="100.88"/>
	<line class="st1" x1="154.94" y1="100.29" x2="154.94" y2="100.88"/>
	<line class="st1" x1="154.91" y1="100.29" x2="154.91" y2="100.88"/>
	<line class="st1" x1="154.87" y1="100.29" x2="154.87" y2="100.88"/>
	<line class="st1" x1="154.84" y1="100.29" x2="154.84" y2="100.88"/>
	<line class="st1" x1="154.8" y1="100.29" x2="154.8" y2="100.88"/>
	<line class="st1" x1="154.77" y1="100.29" x2="154.77" y2="100.88"/>
	<line class="st1" x1="154.73" y1="100.29" x2="154.73" y2="100.88"/>
</g>
</svg>
