<svg id="Layer_1" data-name="Layer 1" xmlns="http://www.w3.org/2000/svg" viewBox="0 0 406.09 243.55"><defs><style>.cls-1{fill:#ef3825;}.cls-1,.cls-10,.cls-11,.cls-12,.cls-2,.cls-6,.cls-7,.cls-8,.cls-9{stroke:#231f20;stroke-miterlimit:10;stroke-width:2px;}.cls-2,.cls-3{fill:#bdb091;}.cls-4{fill:#c6cd31;}.cls-5{fill:#445aa8;}.cls-6{fill:none;}.cls-7{fill:#f9da3f;}.cls-8{fill:#57c9ec;}.cls-9{fill:#627fb7;}.cls-10{fill:#fff;}.cls-11{fill:#828487;}.cls-12{fill:#f3c716;}</style></defs><title>endinggame</title><polyline class="cls-1" points="118.07 159.37 118.07 200.11 137.24 200.11 137.24 182.16"/><path class="cls-2" d="M100.26,259.6a35.7,35.7,0,0,0,2,14.65c5.68,15.58,20.65,21.28,23,22.12,3.45,1.25,15.13,5.48,27.29-.29s16.29-17.38,17.53-20.82A40.07,40.07,0,0,0,172.36,260" transform="translate(-59.53 -129.45)"/><polygon class="cls-3" points="113.68 163.36 113.68 171.33 116.78 171.33 116.06 163.36 113.68 163.36"/><polygon class="cls-3" points="142.85 159.37 141.75 181.6 128.24 182.16 128.24 159.37 142.85 159.37"/><polygon class="cls-3" points="11.77 159.37 11.77 182.16 28.75 180.9 28.75 179.84 34.07 177.43 37.17 171.56 36.46 163.33 34.35 156.27 34.03 148.78 34.57 145.3 24.12 145.3 23.69 153.79 23.84 157.07 23.43 160.12 21.99 159.77 15.04 159.37 11.77 159.37"/><polygon class="cls-4" points="85.99 209.81 85.99 214.71 95.16 214.71 95.72 207.95 85.99 209.81"/><polygon class="cls-4" points="58.79 207.16 60.39 219.6 71.54 217.89 70.63 208.97 58.79 207.16"/><path class="cls-5" d="M143.26,353.36c2.41,4.77,7.94,6.07,10.87,6.76,2.26.53,9.54,2.24,11.58-1,1.48-2.36-.61-6-.89-6.5-2.13-3.69-6.06-4.85-9.19-5.76-2-.59-10.75-3.16-13,.38C141.23,349.34,142.87,352.58,143.26,353.36Z" transform="translate(-59.53 -129.45)"/><path class="cls-5" d="M107.68,353.13c-2.83,3.17-6.83,9.88-4.08,14.37s10.52,3.81,12.63,3.61c8-.74,18.53-6.23,18.63-14.13a11.25,11.25,0,0,0-4.7-8.85C123.57,343.31,113,347.17,107.68,353.13Z" transform="translate(-59.53 -129.45)"/><polygon class="cls-5" points="91.19 170.05 112.87 169.59 112.87 162.56 116.78 162.56 118.07 158.16 112.87 156.13 103.51 157.67 91.19 168.02 91.19 170.05"/><polygon class="cls-5" points="34.83 156.04 37.68 168.82 68.91 168.82 58.37 164.06 47.14 155.18 34.83 156.04"/><line class="cls-6" x1="52.72" y1="169.59" x2="36.7" y2="169.59"/><polygon class="cls-5" points="86.09 205.36 94.57 205.36 94.57 195.78 101.42 195.78 101.83 168.82 53.56 169.05 53.56 196.46 59.53 196.99 60.21 207.39 72.43 207.95 72.43 198.37 84.26 198.29 84.2 207.09 86.09 205.36"/><path class="cls-7" d="M219.81,135.14q6.62,3.51,6.61,12.05,0,6.19-4.89,15.71-5.44,10.6-11.09,10.6a4.07,4.07,0,0,1-2.44-1.06l-2.65-2.11V182a7.41,7.41,0,0,0,.34,2.07c.32,1.1.53,1.86.62,2.27a4.58,4.58,0,0,1-.52,2.24c-.43,1.08-1.06,1.67-1.89,1.76s-2.62-.48-5.37-1.72q-4.35-1.93-5.38-3.45a3.46,3.46,0,0,1,0-2.89,7.87,7.87,0,0,0,.49-2.27V137.48a4.91,4.91,0,0,0-.49-1.52,3.36,3.36,0,0,1-.41-1.58c.28-2.2,1.1-3.31,2.48-3.31a19.38,19.38,0,0,1,2.79.8,16.55,16.55,0,0,0,3.89.86,14.6,14.6,0,0,0,5.27-1.11,15.74,15.74,0,0,1,4.65-1.17,6.67,6.67,0,0,1,1.65.21,7.79,7.79,0,0,1,3.31,2.07A16.36,16.36,0,0,0,219.81,135.14Zm-5.72,5.3a9.6,9.6,0,0,0-4.4,1.72,14.66,14.66,0,0,0-4.34,3.79v16.6q3.72-1.17,7-8.47,3-6.62,3-11.23C215.4,141.25,215,140.44,214.09,140.44Z" transform="translate(-59.53 -129.45)"/><path class="cls-7" d="M243.71,134.17a3.88,3.88,0,0,1-.31,1.31c-.21.55-.33.9-.38,1a33.14,33.14,0,0,0-.83,4.27v42.29a2.69,2.69,0,0,0,.42,1.48,2.19,2.19,0,0,1,.41,1.07c0,2.93-.55,4.52-1.65,4.75a16.71,16.71,0,0,1-4.38-.93,16.88,16.88,0,0,1-4.51-1.69,3.5,3.5,0,0,1-1.51-2.41,1.06,1.06,0,0,1,.27-.62,1.86,1.86,0,0,0,.28-1.17V135a1.81,1.81,0,0,0-.24-.86,1.84,1.84,0,0,1-.24-.86c.09-1.1.94-1.84,2.54-2.21a14.55,14.55,0,0,1,2.9,0,21.85,21.85,0,0,1,4.41.76Q243.71,132.65,243.71,134.17Z" transform="translate(-59.53 -129.45)"/><path class="cls-7" d="M280.77,186.25a2.44,2.44,0,0,1-.83,1.65,2,2,0,0,1-1.72.55q-8.55-1.17-9.51-3.24a1.21,1.21,0,0,1-.14-.55,1.37,1.37,0,0,1,.31-.76,1.8,1.8,0,0,0,.38-.72,1.6,1.6,0,0,1,.28-.59,11.57,11.57,0,0,0,.07-2.41,14,14,0,0,0-2.48,3.31,17.89,17.89,0,0,1-3,4.13,7.15,7.15,0,0,1-5,2.07,5.09,5.09,0,0,1-3.24-1.31,34.25,34.25,0,0,1-2.68-2.69c-2.21-2.48-3.4-3.83-3.59-4.06a6.18,6.18,0,0,1-1.44-3.65,4.15,4.15,0,0,1,.14-1.1q1.31-6.06,8.12-11.5A78,78,0,0,1,270.43,157c0-1.47-.36-2.41-1.1-2.82-.46-.28-2.06.24-4.82,1.55a30,30,0,0,0-5.79,3.34,18.38,18.38,0,0,1-1.79,1.51,2.71,2.71,0,0,1-2.13.42,12.71,12.71,0,0,1-3.24-2.48c-1.65-1.52-2.55-2.53-2.68-3a2.32,2.32,0,0,1,1.17-2.9s1-.32,2.75-.82l5.1-2.76A25.26,25.26,0,0,1,267,146.3a5.39,5.39,0,0,1,3.58,1.65c1.2,1.06,2.4,2.1,3.62,3.13s2.47,2,3.75,3c1.47,1.29,2.21,2.52,2.21,3.72v26A7,7,0,0,1,280.77,186.25Zm-11-20.12a15,15,0,0,0-5.79,4c-1.19,1.47-2.39,2.91-3.58,4.34a16.36,16.36,0,0,0-2.72,3.75,8.35,8.35,0,0,0-1.28,3.41c0,.37.14.55.42.55q1.44,0,6.47-6.23T269.75,166.13Z" transform="translate(-59.53 -129.45)"/><path class="cls-7" d="M320.16,150.5a3.91,3.91,0,0,1,.14,1,3.81,3.81,0,0,1-1,2.41,9.4,9.4,0,0,0-1.52,2.21l-13.7,39.46c-.1.92-.19,1.84-.28,2.76-.18,1.47-.64,2.29-1.38,2.48a4.35,4.35,0,0,1-.75.07,14.28,14.28,0,0,1-4.62-1,11.76,11.76,0,0,1-3.82-2,2.91,2.91,0,0,1-1.07-2.1,5.2,5.2,0,0,1,1-2.51,14.55,14.55,0,0,0,1.11-2l2.27-7.78-11.16-27.41a8.32,8.32,0,0,0-1.24-1.38A4.78,4.78,0,0,1,282.9,152c-.09-.55,1.11-1.52,3.62-2.92S291,147,292.41,147a1.7,1.7,0,0,1,.89.21,3.84,3.84,0,0,1,1.65,2.34c.23,1,.49,2,.76,3l6.06,16.73L308.25,152c.27-.92.57-1.83.89-2.75a2.55,2.55,0,0,1,1.45-1.72,4.76,4.76,0,0,1,1.52-.21,14,14,0,0,1,5,1.07Q319.89,149.47,320.16,150.5Z" transform="translate(-59.53 -129.45)"/><path class="cls-7" d="M338.48,186.38c.19,1.66-.39,2.69-1.72,3.1a4.83,4.83,0,0,1-1,.07,23.21,23.21,0,0,1-6.13-1q-3.93-1.11-4.62-2.34c-.23-.37,0-1.08.62-2.14a8,8,0,0,0,.62-3.79V151.32a14.7,14.7,0,0,1-.82-3.51c0-.6.85-.89,2.55-.89a19.06,19.06,0,0,1,5.75,1.27q3.68,1.27,4.44,2.24a1.09,1.09,0,0,1,.21.69,5.82,5.82,0,0,1-.8,2.06,5.75,5.75,0,0,0-.79,2.28v27.69a3.19,3.19,0,0,0,.79,1.72A4,4,0,0,1,338.48,186.38Zm.21-47.59a1.32,1.32,0,0,1,.07.55,16.74,16.74,0,0,1-.62,3.93c-.46,1.74-.89,2.71-1.31,2.89s-2.43-.31-5.92-1.48-5.35-2-5.58-2.52a2,2,0,0,1-.21-1,9.23,9.23,0,0,1,1-3.93c.73-1.56,1.56-2.43,2.48-2.61s2.89.22,5.51,1.2S338.23,137.78,338.69,138.79Z" transform="translate(-59.53 -129.45)"/><path class="cls-7" d="M376.5,183.35a6.71,6.71,0,0,1,.56,2.62,2.82,2.82,0,0,1-1.59,2.82,4.8,4.8,0,0,1-1.72.21,26.3,26.3,0,0,1-5.58-.72q-3.24-.74-3.93-1.41a1.39,1.39,0,0,1-.34-.9,5.7,5.7,0,0,1,1-2.45,5.73,5.73,0,0,0,1-2.44q.13-27.14-.42-27.35c-.64-.22-2.22,1.84-4.75,6.2q-4,6.9-4,10.4v12.88a3,3,0,0,1,.89,2.21,3.55,3.55,0,0,1-2.34,3.58,2,2,0,0,1-.83.14,25.71,25.71,0,0,1-5.44-.86q-3.58-.87-4-1.41a2,2,0,0,1-.42-1.24,2.91,2.91,0,0,1,.79-1.66c.53-.64.8-1.05.8-1.24v-32a3.08,3.08,0,0,0-.55-1.44,1.83,1.83,0,0,1-.35-1.52,2.67,2.67,0,0,1,2.14-1.86q1.1-.27,5.16.76c2.94.74,4.55,1.49,4.82,2.27a3.73,3.73,0,0,1-.2,2.28,18.32,18.32,0,0,0-.76,2.75,5.39,5.39,0,0,0,.28,1.65,21.39,21.39,0,0,1,2.89-6.13c1.51-2.15,3-3.23,4.54-3.23a16.16,16.16,0,0,1,6.07,1.62q3.72,1.62,4.27,2.92Q376.5,155.18,376.5,183.35Z" transform="translate(-59.53 -129.45)"/><path class="cls-7" d="M412.11,151.32a13.62,13.62,0,0,1-.75,1.38,3.77,3.77,0,0,0-.48,1.52v30.17q0,11.43-8.48,14.67a20,20,0,0,1-7.16,1.51,11.59,11.59,0,0,1-8.13-3.17,37.64,37.64,0,0,1-3.3-3.58l-1.31-1.31a2.63,2.63,0,0,1-.76-1.58q-.08-1,2.07-1.65a3.34,3.34,0,0,1,.82-.07,12.87,12.87,0,0,1,3.62.62,7,7,0,0,1,3,1.51l2.28,2.83a3.93,3.93,0,0,0,2.75,1.58c1.89.18,3.1-1.1,3.65-3.86a40,40,0,0,0,.42-7.09c-.14.18-.58.78-1.31,1.79a8.67,8.67,0,0,1-1.45,1.58,2.32,2.32,0,0,1-1.58.69,9.45,9.45,0,0,1-6.13-2q-7.38-6.21-7.37-18.26a28.72,28.72,0,0,1,3.23-13.7q3.38-6.48,8.82-8.13a2.51,2.51,0,0,1,.76-.14,4.3,4.3,0,0,1,2.48,1q1.17.9,2.34,1.86c.28-.78.56-1.55.86-2.3A1.8,1.8,0,0,1,402.4,146a13.92,13.92,0,0,1,5.13.93q3.69,1.14,4.17,2A2.8,2.8,0,0,1,412.11,151.32Zm-12.19,17a69.57,69.57,0,0,0,.55-7.79c0-3.71-.59-5.8-1.79-6.26q-1.44-.56-3.51,4.89A28.16,28.16,0,0,0,393.1,169q0,8.11,1.86,12.88A31.42,31.42,0,0,0,399.92,168.27Z" transform="translate(-59.53 -129.45)"/><path class="cls-7" d="M262,234.79a212.07,212.07,0,0,0-6.48,21.42q-3,11.24-2.82,12.82v2.54c-.05,1.2-.46,1.86-1.24,2s-2.62-.27-5.92-1.1c-3.45-.87-5.28-1.59-5.51-2.14a16.4,16.4,0,0,1-.14-3.16q-1.86-5.66-3-17.16-.34,1.94-2.35,10.06a43.38,43.38,0,0,0-1.51,7.85c-.05,1-.09,1.91-.14,2.83-.09,1.28-.53,2-1.31,2.27a3.79,3.79,0,0,1-.89.07,18.1,18.1,0,0,1-5.51-1q-3.58-1.1-4.27-2.68a2,2,0,0,1-.11-1.17,5.83,5.83,0,0,0-.1-1.86q-1.44-7.65-2.89-15.22-1.46-7.92-2.28-16c-.13-1.47-.2-2.3-.2-2.48,0-1.89.59-2.8,1.79-2.76a18,18,0,0,1,5,1.45q3.72,1.52,3.92,2.41a11.75,11.75,0,0,1-.13,3q.41,5.31,2.13,18.73l4.75-22.66c.37-1.65,1.08-2.59,2.14-2.82.37,0,1.76.52,4.17,1.69s3.61,2,3.61,2.37a198.5,198.5,0,0,0,3,21.42q4.07-19.83,5.44-23c.37-1.74,1.29-2.5,2.76-2.27a14.68,14.68,0,0,1,4.34,1.51Q261.5,233.28,262,234.79Z" transform="translate(-59.53 -129.45)"/><path class="cls-7" d="M280.23,269.78c.18,1.66-.39,2.69-1.72,3.1a4.87,4.87,0,0,1-1,.07,23.27,23.27,0,0,1-6.13-1q-3.92-1.11-4.61-2.34c-.23-.37,0-1.08.62-2.14a8.09,8.09,0,0,0,.62-3.79V234.72a14.9,14.9,0,0,1-.83-3.51c0-.6.85-.89,2.55-.89a18.93,18.93,0,0,1,5.75,1.27q3.69,1.28,4.45,2.24a1.15,1.15,0,0,1,.2.69,5.73,5.73,0,0,1-.79,2.06,5.59,5.59,0,0,0-.79,2.28v27.69a3.11,3.11,0,0,0,.79,1.72A4.1,4.1,0,0,1,280.23,269.78Zm.21-47.59a1.52,1.52,0,0,1,.07.55,16.74,16.74,0,0,1-.62,3.93c-.46,1.74-.9,2.71-1.31,2.89s-2.44-.31-5.93-1.48-5.35-2-5.58-2.52a2.13,2.13,0,0,1-.2-1,9.35,9.35,0,0,1,1-3.93c.74-1.56,1.56-2.43,2.48-2.61s2.9.22,5.51,1.2S280,221.18,280.44,222.19Z" transform="translate(-59.53 -129.45)"/><path class="cls-7" d="M310.88,237.41a3.8,3.8,0,0,1-.83,2.2,2.1,2.1,0,0,1-1.65,1,1.43,1.43,0,0,1-.48-.07,16.54,16.54,0,0,0-4.34-.34v27.2a10,10,0,0,1,.45,1.1,5.88,5.88,0,0,1,.44,2.07c0,1.33-.91,2-2.75,2.14a18,18,0,0,1-5.3-1.24c-2.8-.92-4.3-1.77-4.48-2.55a4.18,4.18,0,0,1,.48-2,7.2,7.2,0,0,0,.62-2.38V240.1H290.7q-1.31,0-3.24-2.31c-1.28-1.54-1.93-2.77-1.93-3.69a2.65,2.65,0,0,1,.8-1.86,2.37,2.37,0,0,1,1.75-.82h5v-6.2a4.84,4.84,0,0,1-1-3,1.64,1.64,0,0,1,1.24-1.79,7.72,7.72,0,0,1,1.72-.14,26.73,26.73,0,0,1,6,.79,12.67,12.67,0,0,1,4.44,1.62,1.24,1.24,0,0,1,.48,1,4.12,4.12,0,0,1-1.1,2.07,5.21,5.21,0,0,0-1.17,1.93v3.72h2.2c.46,0,1.43.82,2.9,2.48S310.88,236.72,310.88,237.41Z" transform="translate(-59.53 -129.45)"/><path class="cls-7" d="M347.32,269.65a3.14,3.14,0,0,1-1.52,2.54,4.8,4.8,0,0,1-1.72.21,26.3,26.3,0,0,1-5.58-.72q-3.24-.74-3.93-1.41a1.31,1.31,0,0,1-.27-.83,6.7,6.7,0,0,1,.62-2.07l.89-1.2a2.8,2.8,0,0,0,.49-1.69q.13-27.14-.42-27.35c-.69-.22-2.27,1.45-4.75,5q-4,5.72-4,9.16v15.29a3.05,3.05,0,0,1,.75,2.9,3.66,3.66,0,0,1-2.2,2.89,2,2,0,0,1-.83.14,25.71,25.71,0,0,1-5.44-.86c-2.39-.58-3.7-1-3.92-1.28a2.48,2.48,0,0,1-.14-2.55,2.55,2.55,0,0,1,.65-.72,1.42,1.42,0,0,0,.59-1V217.44a3.11,3.11,0,0,0-.55-1.45,1.83,1.83,0,0,1-.35-1.52,2.67,2.67,0,0,1,2.14-1.86q1.1-.27,5.16.76c2.94.74,4.55,1.49,4.82,2.27a3.73,3.73,0,0,1-.2,2.28,12.45,12.45,0,0,0-.48,3.72v12.88q3.86-4.89,7.43-4.89a16.16,16.16,0,0,1,6.07,1.62q3.72,1.62,4.27,2.92,1.92,4.41,1.92,32.58A5.43,5.43,0,0,1,347.32,269.65Z" transform="translate(-59.53 -129.45)"/><path class="cls-7" d="M359,292.86a5.53,5.53,0,0,1-1,2.35,3.36,3.36,0,0,1-2.34,1.58,2.4,2.4,0,0,1-1.24-.24,3.37,3.37,0,0,0-1.17-.31c-.83,0-2.8.67-5.93,2a33.68,33.68,0,0,0-7.37,3.92v12.61c.23-.09,1.31-.74,3.24-1.93a7.49,7.49,0,0,1,3.1-1.24q1.24-.08,4.62,3.86c2.25,2.61,3.32,4.36,3.23,5.23a4.27,4.27,0,0,1-1.37,2.48,4.64,4.64,0,0,1-1.93,1.24,1.55,1.55,0,0,1-1.1-.17,2.92,2.92,0,0,0-1-.31.66.66,0,0,0-.41.14c-1.34.55-2.51,1.05-3.52,1.51a18.87,18.87,0,0,0-4.89,2.83v10a2.44,2.44,0,0,0,.73,1.48,2.81,2.81,0,0,1,.72,1.83q-.14,3.86-3.65,4.61a32.41,32.41,0,0,1-6.54-3.92q-3-2.41-3-4.21V292.73a3.89,3.89,0,0,0-.79-2.24c-.53-.76-.74-1.32-.65-1.69a3.85,3.85,0,0,1,1.31-2.1,4.33,4.33,0,0,1,2.48-1.14c.41,0,1.67.61,3.79,2a16.88,16.88,0,0,0,4.2,2.23l7.57-3.09a14.42,14.42,0,0,1,3.1-1.59c1.15-.14,3.08.89,5.79,3.07S359.08,291.9,359,292.86Z" transform="translate(-59.53 -129.45)"/><path class="cls-7" d="M376,341.91c.18,1.65-.39,2.68-1.72,3.09a5,5,0,0,1-1,.07,23.21,23.21,0,0,1-6.13-1q-3.93-1.1-4.61-2.34c-.23-.37,0-1.08.62-2.14a8,8,0,0,0,.62-3.78V306.85a14.53,14.53,0,0,1-.83-3.52c0-.59.85-.89,2.55-.89a19,19,0,0,1,5.75,1.27Q375,305,375.72,306a1.11,1.11,0,0,1,.21.69,6,6,0,0,1-.79,2.07,5.62,5.62,0,0,0-.8,2.27v27.69a3.11,3.11,0,0,0,.8,1.72A4.19,4.19,0,0,1,376,341.91Zm.2-47.6a1.35,1.35,0,0,1,.07.55,16.23,16.23,0,0,1-.62,3.93c-.46,1.74-.89,2.71-1.31,2.89s-2.43-.31-5.92-1.48-5.35-2-5.58-2.51a2,2,0,0,1-.21-1,9.3,9.3,0,0,1,1-3.92c.73-1.56,1.56-2.44,2.48-2.62s2.89.22,5.51,1.2S375.74,293.3,376.2,294.31Z" transform="translate(-59.53 -129.45)"/><path class="cls-7" d="M408.37,306.78a1.56,1.56,0,0,1-.76,1.79,16.11,16.11,0,0,0-1.58.89q-4.35,6.62-11.78,17.84,0,10.95.07,11.3c0,.23.22.82.51,1.76a7.83,7.83,0,0,1,.45,2.23,1.77,1.77,0,0,1-1.17,1.79,5,5,0,0,1-2.07.35,16.83,16.83,0,0,1-5.78-1.17c-2.66-.92-4-2.09-4-3.51a6.25,6.25,0,0,1,.56-2,6.62,6.62,0,0,0,.55-2.27V308.5c-.51-2.57-.76-3.9-.76-4a2.5,2.5,0,0,1,1.93-2.68,8.18,8.18,0,0,1,2-.21,18,18,0,0,1,5.06.79c1.77.53,2.81,1.1,3.13,1.69a1.57,1.57,0,0,1,.14.69,26.06,26.06,0,0,1-1,3.31v3.3c1.1-2,2.18-3.95,3.23-5.92,1.43-2.48,2.48-3.79,3.17-3.93q1.51-.27,4.62,1.79T408.37,306.78Z" transform="translate(-59.53 -129.45)"/><path class="cls-7" d="M438.19,331.23c.42.69-.48,2.73-2.68,6.13q-3.58,5.44-7,7.37a2.82,2.82,0,0,1-1.24.21,21,21,0,0,1-7-1.66q-4.62-1.65-6.07-3.58-4-5.16-4-14.32a32.16,32.16,0,0,1,3.51-15.3q3.79-7.23,9.65-7.37a13.72,13.72,0,0,1,5.16,1.11,17,17,0,0,1,6.13,3.92q.61.63,1.17,3.72a31.68,31.68,0,0,1,.69,6.48q0,4.68-1.51,6.47A53.52,53.52,0,0,1,420.49,327a24.09,24.09,0,0,0,.83,7.09c.64,2.48,1.31,3.75,2,3.79.91.05,2-.71,3.3-2.27a10.21,10.21,0,0,0,2.14-3.38,33.24,33.24,0,0,1,1.31-4.27,11.66,11.66,0,0,1,4.34,1.11C436.56,329.85,437.83,330.59,438.19,331.23Zm-12.26-21.08q-1.17-.13-3.27,3.72a19.48,19.48,0,0,0-2.44,7.37,8.76,8.76,0,0,0,4.95-1.51q1.11-.83,1.11-6.89C426.28,311.14,426.16,310.25,425.93,310.15Z" transform="translate(-59.53 -129.45)"/><path class="cls-8" d="M464.61,292.2c.14,1.34-.71,2.28-2.55,2.83a10.33,10.33,0,0,0-2.61.07q-1.24,0-7.79,2a66.66,66.66,0,0,0-11,3.86,6.75,6.75,0,0,0-1.75,1.27c-.53.53-.87.8-1,.8-.69.09-2.69-1.1-6-3.59-.92-.55-1.83-1.14-2.75-1.79a3,3,0,0,1-1.45-2.27q0-.48,6-9,7.38-10.47,11.44-17.5,6.27-11.09,6.75-17.56-5.37,2.21-10.75,9.92a1.9,1.9,0,0,0-.51,1.27,2.69,2.69,0,0,1-.38,1.28,2.39,2.39,0,0,1-2,.89q-2.26,0-5.51-2.2L430,260.93c-1.11-.59-1.68-1.12-1.73-1.58q-.13-1.59,3.45-6.13a43.15,43.15,0,0,1,8.54-8.2q5.58-4.12,9.92-4.13a5.28,5.28,0,0,1,3.13,1.07c1,.71,1.94,1.43,2.86,2.17q5.58,3.85,7.09,7.3a4.73,4.73,0,0,1,.28,1.79q0,4.82-5.1,15.7a109.38,109.38,0,0,1-10.33,17.84c1.42-.46,3.4-1.15,5.92-2.06a12.06,12.06,0,0,0,1.45-1,1.91,1.91,0,0,1,1.31-.41c1.1.14,2.65,1.43,4.65,3.89S464.52,291.33,464.61,292.2Z" transform="translate(-59.53 -129.45)"/><path class="cls-9" d="M178.18,259.1c4.18,1.53,3-15.16-2-26.8-6.52-15.2-21.9-24.86-37.74-25.7-15.37-.82-33.7,6.57-41,23-5.6,12.55-4.47,28.94-.73,28.25C115.47,254.36,157.77,251.63,178.18,259.1Z" transform="translate(-59.53 -129.45)"/><path class="cls-6" d="M106,248.16a42.79,42.79,0,0,1,13.77-10.11c1.2-.54,22.38-9.83,39.1,2a33.94,33.94,0,0,1,9.94,11.16" transform="translate(-59.53 -129.45)"/><path class="cls-6" d="M132.29,202c.85-1.74,3.3-2.28,5-2.11,2,.21,4.6,1.6,4.91,3.86.36,2.71-2.66,5.52-5.53,5.26C133.38,208.67,131.08,204.41,132.29,202Z" transform="translate(-59.53 -129.45)"/><path class="cls-6" d="M111.27,201.14" transform="translate(-59.53 -129.45)"/><ellipse class="cls-10" cx="64.35" cy="141.53" rx="8.08" ry="5.94"/><ellipse class="cls-10" cx="91.54" cy="141.53" rx="8.08" ry="5.94"/><line class="cls-6" x1="89.73" y1="141.53" x2="94.48" y2="141.53"/><line class="cls-6" x1="61.97" y1="141.53" x2="66.73" y2="141.53"/><path class="cls-6" d="M131.49,287.22a11.92,11.92,0,0,0,10,.84,11.18,11.18,0,0,0,5.17-4.33" transform="translate(-59.53 -129.45)"/><polygon class="cls-6" points="52.72 169.59 52.72 196.99 59.53 196.99 59.53 207.95 72.43 207.95 72.43 198.37 83.46 198.37 83.46 207.95 96.58 207.95 96.58 197.62 103.51 197.62 103.51 169.59 52.72 169.59"/><polyline class="cls-6" points="98.36 180.6 98.36 187.92 60.21 187.92 60.21 180.6"/><polyline class="cls-6" points="25.76 159.37 11.77 159.37 11.77 182.16 27.89 182.16 27.89 179.29 27.89 164.29 19.83 164.29"/><line class="cls-6" x1="19.83" y1="170.76" x2="27.89" y2="170.76"/><line class="cls-6" x1="19.83" y1="176.04" x2="27.89" y2="176.04"/><polygon class="cls-11" points="11.77 159.37 11.77 149.87 19.83 149.87 23.87 145.82 23.86 159.37 11.77 159.37"/><path class="cls-6" d="M96.23,300.22c.43-4.7-2.67-13.94-2.67-13.94v-11H83.41l0,4v9.5l4,4.93v15C94.7,308.92,96.23,300.22,96.23,300.22Z" transform="translate(-59.53 -129.45)"/><line class="cls-6" x1="48.8" y1="155.18" x2="34.03" y2="155.18"/><line class="cls-6" x1="116.78" y1="156.82" x2="104.81" y2="156.82"/><line class="cls-6" x1="112.87" y1="169.59" x2="103.51" y2="169.59"/><rect class="cls-6" x="112.87" y="162.56" width="3.92" height="9.42"/><polygon class="cls-6" points="142.85 159.37 128.24 159.37 128.24 165.01 128.24 182.16 142.85 182.16 142.85 159.37"/><line class="cls-6" x1="137.24" y1="165.01" x2="128.24" y2="165.01"/><line class="cls-6" x1="136.45" y1="170.76" x2="128.24" y2="170.76"/><line class="cls-6" x1="135.55" y1="176.1" x2="128.24" y2="176.1"/><polygon class="cls-6" points="136.45 159.37 136.45 149.87 127.65 149.87 127.65 154.28 124.32 154.28 124.32 149.87 121.19 149.87 118.07 156.17 119.19 159.37 136.45 159.37"/><polygon class="cls-6" points="85.25 208.9 85.25 215.41 95.72 215.41 95.72 207.95 85.25 208.9"/><polygon class="cls-6" points="59.53 207.95 59.53 218.67 70.63 218.67 70.63 208.97 59.53 207.95"/><path class="cls-6" d="M116.29,349.28c-5,1.79-14.09,5.08-15.15,12.28,0,.24-.66,5,2.38,8,5.26,5.3,16.34.43,19.11-.79s8.84-4,11.58-10.2c.56-1.27,2.48-5.61.5-8.32-.81-1.09-2.1-1.71-4.55-2.14A28.39,28.39,0,0,0,116.29,349.28Z" transform="translate(-59.53 -129.45)"/><path class="cls-6" d="M143.87,346.88c-1.62,1.56-1.32,4.62-.61,6.48.27.7,1.08,2.49,6.32,5.53,5,2.93,7.53,4.39,10.46,4,3.28-.46,7.37-2.92,7.6-6.22.27-3.87-4.89-6.64-6.39-7.44-1.69-.9-3.57-1.28-7.27-2C148.16,346.1,145.22,345.57,143.87,346.88Z" transform="translate(-59.53 -129.45)"/><path class="cls-12" d="M72.56,272.66c-6.7-1.25-12.57-7.33-12-12.15s7.48-5.31,9.24-12c1.31-5-1.22-9.93-.81-10s2.7,9.35,5,9.23c1.58-.08,2.86-4.63,3.08-8.26.32-5.51-1.78-9.43-1.46-9.56s4.34,8.69,7.61,16c5.86,13.15,7,15,6,18C87.43,269.5,79.87,274,72.56,272.66Z" transform="translate(-59.53 -129.45)"/></svg>