<svg width="1095" height="52" viewBox="0 0 1095 52" fill="none" xmlns="http://www.w3.org/2000/svg">
<path d="M12 44V28H28V24H12V16H32V8H4V44H12ZM0 52V4H36V20H32V36H16V52H0ZM77.1875 44V36H57.1875V24H61.1875V8H53.1875V20H49.1875V32H45.1875V44H77.1875ZM41.1875 52V28H45.1875V16H49.1875V4H65.1875V32H81.1875V52H41.1875ZM114.375 44V24H118.375V20H122.375V16H126.375V12H122.375V8H118.375V12H114.375V16H110.375V20H106.375V16H102.375V12H98.375V8H94.375V12H90.375V16H94.375V20H98.375V24H102.375V44H114.375ZM98.375 52V32H94.375V28H90.375V24H86.375V8H90.375V4H102.375V8H106.375V12H110.375V8H114.375V4H126.375V8H130.375V20H126.375V28H122.375V32H118.375V52H98.375Z" fill="#3F65DB"/>
<path d="M184.75 44V32H180.75V8H172.75V20H168.75V24H164.75V20H160.75V8H152.75V32H148.75V44H156.75V32H160.75V36H164.75V40H168.75V36H172.75V32H176.75V44H184.75ZM144.75 52V28H148.75V4H164.75V16H168.75V4H184.75V28H188.75V52H172.75V48H160.75V52H144.75ZM225.938 44V36H205.938V28H221.938V24H205.938V16H225.938V8H197.938V44H225.938ZM193.938 52V4H229.938V20H225.938V32H229.938V52H193.938Z" fill="#DF2333"/>
<path d="M268.312 44V16H280.312V8H248.312V16H260.312V32H256.312V44H268.312ZM252.312 52V28H256.312V24H244.312V4H284.312V24H272.312V52H252.312ZM305.5 36V32H301.5V20H305.5V16H313.5V20H317.5V32H313.5V36H305.5ZM317.5 44V40H321.5V36H325.5V16H321.5V12H317.5V8H305.5V12H301.5V16H297.5V20H293.5V36H297.5V40H301.5V44H317.5ZM297.5 52V48H293.5V44H289.5V16H293.5V12H297.5V8H301.5V4H321.5V8H325.5V12H329.5V44H325.5V48H321.5V52H297.5Z" fill="#F49A05"/>
<path d="M367.875 44V16H379.875V8H347.875V16H359.875V32H355.875V44H367.875ZM351.875 52V28H355.875V24H343.875V4H383.875V24H371.875V52H351.875ZM425.062 44V4H417.062V20H405.062V4H393.062V44H401.062V32H417.062V44H425.062ZM389.062 52V0H409.062V16H413.062V0H429.062V52H413.062V40H405.062V52H389.062ZM466.25 44V36H446.25V28H462.25V24H446.25V16H466.25V8H438.25V44H466.25ZM434.25 52V4H470.25V20H466.25V32H470.25V52H434.25Z" fill="#4C7AE8"/>
<path d="M524.625 44V32H520.625V8H512.625V20H508.625V24H504.625V20H500.625V8H492.625V32H488.625V44H496.625V32H500.625V36H504.625V40H508.625V36H512.625V32H516.625V44H524.625ZM484.625 52V28H488.625V4H504.625V16H508.625V4H524.625V28H528.625V52H512.625V48H500.625V52H484.625ZM549.812 36V32H545.812V20H549.812V16H557.812V20H561.812V32H557.812V36H549.812ZM561.812 44V40H565.812V36H569.812V16H565.812V12H561.812V8H549.812V12H545.812V16H541.812V20H537.812V36H541.812V40H545.812V44H561.812ZM541.812 52V48H537.812V44H533.812V16H537.812V12H541.812V8H545.812V4H565.812V8H569.812V12H573.812V44H569.812V48H565.812V52H541.812ZM595 36V32H591V20H595V16H603V20H607V32H603V36H595ZM607 44V40H611V36H615V16H611V12H607V8H595V12H591V16H587V20H583V36H587V40H591V44H607ZM587 52V48H583V44H579V16H583V12H587V8H591V4H611V8H615V12H619V44H615V48H611V52H587ZM636.188 44V24H640.188V28H644.188V32H648.188V36H652.188V40H660.188V8H652.188V24H648.188V20H644.188V16H640.188V12H636.188V8H632.188V12H628.188V44H636.188ZM624.188 52V8H628.188V4H640.188V8H644.188V12H648.188V4H664.188V48H648.188V44H644.188V40H640.188V52H624.188Z" fill="#06AC18"/>
<path d="M714.562 44V36H694.562V24H698.562V8H690.562V20H686.562V32H682.562V44H714.562ZM678.562 52V28H682.562V16H686.562V4H702.562V32H718.562V52H678.562ZM755.75 44V36H735.75V28H751.75V24H735.75V16H755.75V8H727.75V44H755.75ZM723.75 52V4H759.75V20H755.75V32H759.75V52H723.75ZM788.938 44V16H800.938V8H768.938V16H780.938V32H776.938V44H788.938ZM772.938 52V28H776.938V24H764.938V4H804.938V24H792.938V52H772.938ZM859.312 44V32H855.312V8H847.312V20H843.312V24H839.312V20H835.312V8H827.312V32H823.312V44H831.312V32H835.312V36H839.312V40H843.312V36H847.312V32H851.312V44H859.312ZM819.312 52V28H823.312V4H839.312V16H843.312V4H859.312V28H863.312V52H847.312V48H835.312V52H819.312ZM900.5 44V36H880.5V28H896.5V24H880.5V16H900.5V8H872.5V44H900.5ZM868.5 52V4H904.5V20H900.5V32H904.5V52H868.5ZM930.875 28V16H942.875V28H930.875ZM930.875 44V32H946.875V28H950.875V16H946.875V12H942.875V8H922.875V44H930.875ZM918.875 52V4H946.875V8H950.875V12H954.875V36H950.875V40H934.875V52H918.875ZM996.062 44V36H976.062V24H980.062V8H972.062V20H968.062V32H964.062V44H996.062ZM960.062 52V28H964.062V16H968.062V4H984.062V32H1000.06V52H960.062ZM1021.25 32V20H1033.25V32H1021.25ZM1041.25 44V16H1037.25V12H1033.25V8H1021.25V16H1017.25V24H1013.25V32H1009.25V44H1021.25V36H1029.25V44H1041.25ZM1005.25 52V28H1009.25V20H1013.25V12H1017.25V4H1037.25V8H1041.25V12H1045.25V52H1005.25ZM1078.44 44V24H1082.44V20H1086.44V16H1090.44V12H1086.44V8H1082.44V12H1078.44V16H1074.44V20H1070.44V16H1066.44V12H1062.44V8H1058.44V12H1054.44V16H1058.44V20H1062.44V24H1066.44V44H1078.44ZM1062.44 52V32H1058.44V28H1054.44V24H1050.44V8H1054.44V4H1066.44V8H1070.44V12H1074.44V8H1078.44V4H1090.44V8H1094.44V20H1090.44V28H1086.44V32H1082.44V52H1062.44Z" fill="#DC1A2F"/>
</svg>
