<?xml version="1.0" encoding="UTF-8"?><svg id="Layer_2" xmlns="http://www.w3.org/2000/svg" viewBox="0 0 336.73 127.75"><defs><style>.cls-1{fill:#f0c;}.cls-2{fill:none;stroke:#f0c;stroke-miterlimit:10;stroke-width:8.19px;}</style></defs><g id="Layer_1-2"><g><g><g><path class="cls-1" d="m137.24,58.09c1.47-2.13,2.78-2.46,3.93-.98,2.46,2.95,3.77,9.99-.16,18.17-3.6,7.37-11.79,19.65-15.72,28.32-4.09,9.17-4.26,16.21,1.31,15.88,6.71-.33,15.72-11.46,21.45-22.76.82-1.47,1.97-1.64,2.62-.16.65,1.47.65,5.57-1.47,10.15-4.26,9-14.57,18.01-23.57,17.52-8.84-.49-13.42-5.73-13.42-13.43-5.24,6.71-12.61,12.77-20.46,12.77-15.22,0-18.34-20.79-4.75-40.6,13.26-19.32,26.19-26.69,34.38-26.69,7.04,0,10.31,5.4,9.99,11.79,2.13-3.93,4.09-7.37,5.89-9.99Zm-13.1,6.71c-5.24-.49-17.19,10.15-26.19,24.72-8.68,14.08-10.8,28.49-4.42,28.65,6.71.16,15.23-10.31,23.58-24.72,10.31-18.01,11.79-28.16,7.04-28.65Z"/><path class="cls-1" d="m131.51,121.28c4.61-9.6,9.29-19.15,14.04-28.65,4.75-9.5,9.47-19.15,14.17-28.98l15.46-.65-17.9,30.45.27.33c3.44-5.13,6.49-9.25,9.16-12.36,2.67-3.11,5-5.65,6.98-7.61,1.99-1.96,3.66-3.46,5.02-4.5,1.36-1.04,2.35-1.94,2.98-2.7.99-1.2,1.92-2.15,2.78-2.86.86-.71,1.87-1.25,3.05-1.64,1.17-.38,2.6-.63,4.27-.74,1.67-.11,3.77-.22,6.31-.33-1.72,2.95-3.3,6.03-4.75,9.25-1.45,3.22-2.17,6.69-2.17,10.4,0,4.69,1.94,7.04,5.83,7.04,1.26,0,2.51-.33,3.73-.98,1.22-.66,2.37-1.47,3.46-2.46,1.09-.98,2.12-2.05,3.12-3.19.99-1.15,1.9-2.21,2.71-3.19l.54.82c-2.53,3.82-5.52,6.93-8.95,9.33-3.44,2.4-7.19,3.6-11.26,3.6-3.62,0-6.47-1.15-8.54-3.44-2.08-2.29-3.12-5.67-3.12-10.15,0-2.84.68-5.51,2.03-8.02l-.27-.33c-3.8,3.06-7.41,6.6-10.85,10.64-3.44,4.04-6.62,8.3-9.56,12.77-2.94,4.48-5.65,9.09-8.14,13.83-2.49,4.75-4.73,9.36-6.71,13.83l-13.7.49Z"/><path class="cls-1" d="m211.89,123.08c-8.68,0-14.24-4.42-17.19-11.62-1.47,3.44-3.27,7.37-4.75,10.81-.65,1.64-1.64,1.8-2.62.49-2.46-3.28-4.09-8.02-.82-18.01,4.42-13.59,36.51-74.16,47.8-89.88,1.47-2.13,2.78-2.13,4.09.16,2.46,4.58,2.46,11.95-4.26,24.23-2.46,4.58-9.5,15.88-14.57,24.89,4.75-4.26,9.82-6.88,14.08-6.88,13.91,0,14.57,19.32,5.57,39.29-7.69,17.19-17.84,26.52-27.34,26.52Zm7.37-52.55c-7.37,7.69-15.22,21.28-21.28,33.89.33,4.75,2.46,9.99,6.88,10.97,5.73,1.31,13.26-3.6,22.76-22.59,9.33-18.5,7.37-28.49,3.6-28.81-3.44-.33-7.04,1.47-11.95,6.55Z"/><path class="cls-1" d="m246.1,99.83c4.09-11.95,14.9-31.27,20.96-39.78,1.47-1.96,2.62-2.46,3.93-.98,2.46,2.62,3.77,9.66-.16,17.84-3.44,7.2-10.31,18.34-13.75,26.52-3.93,9.49-3.6,15.88,1.64,15.55,7.37-.33,16.37-11.13,21.28-22.43.82-1.47,1.96-1.31,2.62,0,1.31,2.62.82,6.06-1.15,10.15-4.91,10.15-15.23,17.03-24.39,17.03-12.44,0-15.55-10.48-10.97-23.9Z"/><path class="cls-1" d="m301.11,119.15c13.59.66,25.54-12.44,32.58-23.25.82-1.31,2.13-1.31,2.78.16.65,1.31.16,5.89-2.78,10.15-6.88,9.99-19.48,17.52-32.09,17.68-20.79.33-27.99-20.14-17.35-41.26s27.34-29.63,35.53-24.88c4.09,2.46,7.04,4.91,9.66,8.51,2.95,3.93,1.64,13.92-5.24,22.27-8.02,9.82-18.99,14.08-30.45,4.75-5.24,15.06-1.31,25.37,7.37,25.87Zm13.59-37.65c5.24-6.88,8.84-15.39,6.55-17.19-3.44-2.78-17.03,7.04-24.72,22.59-.49.98-.98,1.96-1.31,2.78,8.02,5.07,14.73-1.96,19.48-8.19Z"/></g><path class="cls-1" d="m41.57,71.08l-4.08,4.8c4.74.43,8.98,1,12.71,1.72,3.73.72,7.18,1.52,10.35,2.4,3.17.88,5.96,1.8,8.35,2.76,8.42,3.52,12.63,8.42,12.63,14.71,0,3.84-1.76,7.59-5.28,11.27s-8.09,6.95-13.71,9.83c-5.62,2.88-11.4,5.13-17.35,6.75-5.94,1.62-11.34,2.44-16.19,2.44-8.1,0-14.42-1.51-18.94-4.52-4.53-3.01-6.79-7.13-6.79-12.35,0-3.62,1.38-7.89,4.16-12.79,2.77-4.9,7.06-11,12.87-18.31-4.37-.21-7.46-.87-9.27-1.96-1.81-1.09-2.72-2.62-2.72-4.6,0-1.23.35-2.16,1.04-2.8.69-.64,1.62-1.11,2.8-1.4,1.17-.29,3.42-.65,6.75-1.08,3.33-.43,7.61-.96,12.83-1.6,5.81-7.14,11.02-12.51,15.63-16.11,4.61-3.6,9.55-5.66,14.83-6.2.43-.05.89-.08,1.4-.08s.76.13.76.4c0,.32-.6,1.17-1.8,2.56-1.2,1.39-3.15,3.6-5.84,6.63-2.69,3.04-5.88,6.63-9.55,10.79,10.02-1.33,18.21-2.86,24.58-4.6,6.37-1.73,11.18-3.8,14.43-6.2,3.25-2.4,4.88-5.06,4.88-7.99,0-3.57-1.73-6.16-5.2-7.75-3.47-1.6-8.77-2.4-15.91-2.4-3.94,0-8.46.4-13.55,1.2-5.09.8-9.7,1.71-13.83,2.72-4.13,1.01-7.81,2.09-11.03,3.24-3.23,1.15-4.84,1.99-4.84,2.52,0,.16.16.32.48.48,2.61.96,3.92,1.76,3.92,2.4,0,.85-4,2.49-11.99,4.92-7.99,2.43-13.38,3.64-16.15,3.64-1.97,0-2.96-.99-2.96-2.96,0-2.34,2.14-6.57,6.43-12.67,4.29-6.1,8.19-10,11.71-11.71,1.23-.59,4.08-1.52,8.55-2.8s9.39-2.5,14.75-3.68c5.36-1.17,10.8-2.16,16.35-2.96,5.54-.8,10.44-1.2,14.71-1.2,10.07,0,17.64,1.8,22.7,5.4,5.06,3.6,7.59,8.11,7.59,13.55,0,3.68-1.16,7.22-3.48,10.63-2.32,3.41-5.93,6.63-10.83,9.67-4.9,3.04-11.29,5.7-19.14,7.99-7.86,2.29-17.12,4.05-27.78,5.28Zm-8.47,10.31c-2.77,3.31-5.24,6.22-7.39,8.75-2.16,2.53-3.71,4.58-4.64,6.16-.93,1.57-1.4,3.16-1.4,4.76,0,2.56,1.32,4.84,3.96,6.83s6.43,3,11.39,3c4.58,0,9.47-.81,14.67-2.44,5.2-1.62,9.56-3.74,13.11-6.35,3.54-2.61,5.32-5.25,5.32-7.91,0-2.29-1.31-4.18-3.92-5.68-2.61-1.49-6.58-2.81-11.91-3.96-5.33-1.15-11.72-2.2-19.18-3.16Z"/></g><path class="cls-2" d="m261.13,26.78c-2.88,4.8-3,10.1.05,12.79,2.79,2.47,7.43,2.03,11.58-.71,1.46,6.87,6.39,11.65,11.11,10.72,2.93-.58,5.1-3.23,6.02-6.81,4.98,1.97,9.98,1.31,12.17-1.96,2.72-4.05.1-10.56-5.85-14.55-1.71-1.14-3.5-1.95-5.26-2.42.86-1.09,1.64-2.33,2.28-3.7,3.01-6.5,1.86-13.42-2.57-15.47-4.42-2.05-10.45,1.56-13.46,8.05-.38.82-.69,1.64-.94,2.46-1.45-1.23-3.22-2.29-5.24-3.06-6.69-2.55-13.52-.92-15.25,3.64-1.39,3.66.92,8.09,5.35,11.01Z"/></g></g></svg>