<?xml version="1.0" encoding="utf-8"?>
<!-- Generator: Adobe Illustrator 24.0.2, SVG Export Plug-In . SVG Version: 6.00 Build 0)  -->
<svg version="1.1" id="Layer_1" xmlns="http://www.w3.org/2000/svg" xmlns:xlink="http://www.w3.org/1999/xlink" x="0px" y="0px"
	 viewBox="0 0 1000 1000" style="enable-background:new 0 0 1000 1000;" xml:space="preserve">
<style type="text/css">
	.st0{fill:#FFFFFF;}
</style>
<g>
	<g transform="translate(0.000000,511.000000) scale(0.100000,-0.100000)">
		<path class="st0" d="M6196,2550.3c-51.8-18.4-72.3-35.6-90.6-77.6c-17.3-43.1-18.4-93.9-1-125.1c6.4-12.9,86.3-96,175.8-185.5
			c262.1-258.9,417.4-473.5,571.7-787.4c137-278.3,223.3-553.3,270.7-862.8c28-181.2,28-625.5,1.1-803.5
			c-80.9-523.1-285.8-996.5-607.3-1402.1c-39.9-50.7-146.7-165-236.2-254.6c-90.6-88.4-169.4-172.6-176.9-184.5
			c-29.1-56.1,0-152.1,57.1-187.6c44.2-26.9,120.8-26.9,165,1.1c52.9,32.4,276.1,251.3,372.1,366.7
			c415.3,493.9,662.3,1065.6,736.6,1704.1c21.5,176.9,20.5,537.1,0,716.2c-87.4,742.1-416.3,1409.7-950.2,1925.2
			C6314.7,2556.7,6275.8,2578.3,6196,2550.3z"/>
		<path class="st0" d="M5762.4,2086.5c-43.1-22.7-67.9-52.9-80.9-101.4c-19.4-71.2-1-100.3,147.8-248.1
			C6225.1,1346.6,6457,867.7,6512,324.1c46.4-467-63.6-964.3-304.1-1367.6C6105.4-1215,5986.7-1366,5832.5-1518
			c-144.6-143.4-168.3-181.2-154.3-239.4c11.9-53.9,46.4-96,91.6-114.3c74.4-29.1,113.3-16.2,221.1,79.8
			c323.5,286.9,586.7,704.3,724.8,1149.8c145.6,471.4,145.6,1027.8,0,1499.2c-130.5,420.7-343,772.3-657.9,1085
			C5897.3,2101.6,5843.3,2127.5,5762.4,2086.5z"/>
		<path class="st0" d="M4632.1,1939.8c-22.6-5.4-56.1-17.3-75.5-26.9c-19.4-10.8-285.8-214.7-593.2-453l-557.6-435.8h-310.6h-311.8
			l-66.8-33.5c-74.4-37.8-129.4-101.4-152.1-175.8c-19.4-65.8-19.4-1354.7,0-1414c30.2-90.6,90.6-154.3,185.5-194.2
			c33.4-13,94.9-16.2,348.4-16.2h307.4l560.9-437.9c308.5-240.6,584.6-447.6,612.6-459.4c113.3-51.8,253.4-18.3,341.9,79.8
			c86.3,97.1,80.9-29.1,80.9,1734.3c0,1763.4,5.4,1637.3-80.9,1734.3C4847.8,1923.6,4729.2,1963.5,4632.1,1939.8z"/>
		<path class="st0" d="M5391.4,1469.6c-47.4-23.8-76.5-72.3-76.5-130.5c0-63.7,10.8-79.8,115.4-184.4
			c202.8-201.7,330-422.8,398-690.3c129.4-509.1-23.7-1039.8-404.5-1408.6c-90.6-88.4-108.9-117.5-108.9-177.9
			c0-58.3,28-104.6,77.6-130.5c80.9-41,132.6-22.7,247,88.4c297.7,290.1,479.9,660,527.4,1069.9c18.4,152.1,7.5,409.9-21.6,549
			c-75.5,360.3-244.9,669.8-505.9,924.3C5527.3,1489,5471.2,1508.4,5391.4,1469.6z"/>
	</g>
</g>
</svg>
