<?xml version="1.0" encoding="utf-8"?>
<!-- Generator: Adobe Illustrator 24.0.2, SVG Export Plug-In . SVG Version: 6.00 Build 0)  -->
<svg version="1.1" id="Capa_1" xmlns="http://www.w3.org/2000/svg" xmlns:xlink="http://www.w3.org/1999/xlink" x="0px" y="0px"
	 viewBox="0 0 512 512" style="enable-background:new 0 0 512 512;" xml:space="preserve">
<style type="text/css">
	.st0{fill:#111114;}
	.st1{clip-path:url(#SVGID_2_);fill:#4B679C;}
	.st2{fill:#FFFFFF;}
</style>
<g>
	<circle class="st0" cx="252.5" cy="252.5" r="241.5"/>
	<g>
		<g>
			<g>
				<g>
					<defs>
						<circle id="SVGID_1_" cx="252.5" cy="252.5" r="241.5"/>
					</defs>
					<clipPath id="SVGID_2_">
						<use xlink:href="#SVGID_1_"  style="overflow:visible;"/>
					</clipPath>
					<circle class="st1" cx="200.6" cy="190.9" r="229.5"/>
				</g>
			</g>
		</g>
	</g>
</g>
<g>
	<g>
		<path class="st2" d="M129,367.9h36.4c18.9,16.6,43,25.9,68.4,25.9c14.9,0,64.8,0,81.3,0c16.1,0,29.2-13,29.2-29.2
			c0-6-1.8-11.5-4.9-16.2h1.7c16.1,0,29.2-13,29.2-29.2c0-6.8-2.3-13-6.2-18c11.1-4,19.2-14.8,19.2-27.4c0-9.2-4.2-17.4-10.9-22.7
			c8.5-6.8,12.1-17.4,10.4-27.5c-2.3-13.9-15.1-24.3-30-24.3c-7.1,0-54.1,0-61.7,0l2-5.8c10.9-32.8,0.8-68.1-23.4-88.7
			c-13.4-11.7-36.5-7.7-43.6,11.5c-0.4,1.3-0.4,2.8-0.2,4.1c5.3,17.1,5.4,28.7,0.3,39.7c-5.3,11.5-17,23.6-38.7,40.4
			c-5.3,4.1-9.8,6.5-14.2,8.9c-6.9,3.7-13.5,7.3-20.4,15.8H129"/>
	</g>
</g>
</svg>
