<?xml version="1.0" encoding="utf-8"?>
<!-- Generator: Adobe Illustrator 24.0.2, SVG Export Plug-In . SVG Version: 6.00 Build 0)  -->
<svg version="1.1" id="Capa_1" xmlns="http://www.w3.org/2000/svg" xmlns:xlink="http://www.w3.org/1999/xlink" x="0px" y="0px"
	 viewBox="0 0 512 512" style="enable-background:new 0 0 512 512;" xml:space="preserve">
<style type="text/css">
	.st0{fill:#111114;}
	.st1{clip-path:url(#SVGID_2_);fill:#4B679C;}
	.st2{fill:#FFFFFF;}
</style>
<g>
	<circle class="st0" cx="252.5" cy="252.5" r="241.5"/>
	<g>
		<g>
			<g>
				<g>
					<defs>
						<circle id="SVGID_1_" cx="252.5" cy="252.5" r="241.5"/>
					</defs>
					<clipPath id="SVGID_2_">
						<use xlink:href="#SVGID_1_"  style="overflow:visible;"/>
					</clipPath>
					<circle class="st1" cx="200.6" cy="190.9" r="229.5"/>
				</g>
			</g>
		</g>
	</g>
</g>
<g>
	<g>
		<path class="st2" d="M129,286.7h23.7c6.8,8.4,13.4,11.9,20.4,15.8c4.4,2.4,9,4.9,14.2,8.9c21.8,16.8,33.4,28.9,38.7,40.4
			c5.2,11.1,5.1,22.6-0.3,39.7c-0.4,1.4-0.4,2.8,0.2,4.1c7,19.3,30.1,23.1,43.6,11.5c24.1-20.6,34.4-55.8,23.4-88.6l-2-5.8
			c7.6,0,54.6,0,61.7,0c14.8,0,27.7-10.4,30-24.3c1.7-10.2-2.1-20.7-10.4-27.5c6.7-5.3,10.9-13.5,10.9-22.7
			c0-12.7-8.1-23.4-19.2-27.4c3.9-5,6.2-11.2,6.2-18c0-16.1-13.1-29.2-29.2-29.2h-1.7c3.1-4.7,5-10.2,5-16.2
			c0-16.1-13.1-29.2-29.2-29.2c-16.5,0-66.2,0-81.3,0c-25.4,0-49.6,9.3-68.4,25.9h-36.4"/>
	</g>
</g>
</svg>
